<svg width="23" height="23" viewBox="0 0 23 23" fill="none" xmlns="http://www.w3.org/2000/svg">
<path fill-rule="evenodd" clip-rule="evenodd" d="M11.5009 7.64453C13.5274 7.64453 15.1712 9.2874 15.1712 11.3147C15.1712 13.3411 13.5274 14.9839 11.5009 14.9839C9.47445 14.9839 7.83066 13.3411 7.83066 11.3147C7.83066 9.2874 9.47445 7.64453 11.5009 7.64453ZM11.5011 16.9682C8.37448 16.9682 5.83945 14.4333 5.83945 11.3068C5.83945 8.17946 8.37448 5.64453 11.5011 5.64453C14.6277 5.64453 17.1628 8.17946 17.1628 11.3068V11.3145C17.1585 14.4385 14.6243 16.9682 11.5011 16.9682ZM17.3665 6.77212C16.6362 6.77212 16.0446 6.17969 16.0446 5.44943C16.0446 4.71917 16.6362 4.1276 17.3665 4.1276C18.0968 4.1276 18.6892 4.71917 18.6892 5.44943C18.6892 6.17969 18.0968 6.77212 17.3665 6.77212ZM22.4518 6.77182C22.4338 5.85665 22.2618 4.95174 21.9433 4.09307C21.6659 3.35938 21.2318 2.69333 20.6719 2.14457C20.1223 1.58296 19.457 1.14892 18.7225 0.872394C17.8655 0.553066 16.9588 0.380989 16.0445 0.363867C14.8913 0.296234 14.4931 0.296234 11.5009 0.296234C8.50959 0.296234 8.11063 0.296234 6.95741 0.363867C6.04305 0.380989 5.13725 0.55221 4.2794 0.872394C3.54483 1.14892 2.88047 1.58296 2.32997 2.14457C1.77006 2.69333 1.33599 3.35938 1.0586 4.09307C0.738408 4.95088 0.566324 5.85665 0.550057 6.77182C0.482422 7.925 0.482422 8.32223 0.482422 11.3143C0.482422 14.3064 0.482422 14.7045 0.550057 15.8577C0.56718 16.772 0.739264 17.6778 1.0586 18.5356C1.33599 19.2701 1.77006 19.9353 2.32997 20.4849C2.88047 21.0457 3.54483 21.4797 4.2794 21.7563C5.13725 22.0764 6.04305 22.2485 6.95741 22.2648C8.11063 22.3333 8.50959 22.3333 11.5009 22.3333C14.4931 22.3333 14.8913 22.3333 16.0445 22.2648C16.9597 22.2485 17.8655 22.0764 18.7225 21.7563C20.201 21.1827 21.3697 20.0141 21.9433 18.5356C22.2618 17.6778 22.4338 16.772 22.4518 15.8577C22.5195 14.7045 22.5195 14.3064 22.5195 11.3143C22.5195 8.32223 22.5195 7.925 22.4518 6.77182Z" fill="white"/>
</svg>
