<svg width="100" height="63" viewBox="0 0 100 63" fill="none" xmlns="http://www.w3.org/2000/svg">
<g opacity="0.4">
<g opacity="0.4">
<path opacity="0.4" fill-rule="evenodd" clip-rule="evenodd" d="M43.0775 46.8151L42.8145 53.8101L60.4871 63L56.3292 51.7299L43.0775 46.8151Z" fill="#E30613"/>
</g>
</g>
<path d="M44.7473 47.9767L43.2225 53.4563L1.12167 31.564L14.5737 25.1588L44.7473 47.9767Z" fill="white" stroke="#252525"/>
<path d="M37.0219 0.843177L55.489 50.8977L0.984277 31.3678L37.0219 0.843177Z" fill="white" stroke="#252525"/>
<path d="M56.6715 5.11605L45.035 46.9422L15.5909 24.6757L56.6715 5.11605Z" fill="white" stroke="#252525"/>
<path d="M40.951 11.4943L16.7481 23.0176L37.0569 0.940635L40.951 11.4943Z" fill="white" stroke="#252525"/>
<path d="M60.7773 41.5944L67.6522 41.5806C67.6522 41.5806 69.3859 41.3986 69.3827 39.695C69.3793 37.9438 67.6446 37.7684 67.6446 37.7684L60.7697 37.7817L60.7773 41.5944ZM60.7854 45.7069C60.7914 48.7597 60.7912 48.6676 60.7972 51.7201L56.3291 51.729L56.293 33.3209L67.641 33.2987C73.4295 33.2874 74.0279 37.4872 74.0318 39.5067C74.036 41.6468 73.3822 44.2787 70.4492 45.2801L74.5588 51.6934L69.5017 51.7031L66.6849 47.3195C66.3376 46.7786 65.9902 46.2381 65.6427 45.6975L60.7854 45.7069Z" fill="white"/>
<path d="M78.2121 51.6804L78.194 42.6566L74.3478 42.6642L74.3457 41.5799L86.0091 41.5571L83.5372 42.6461L79.2783 42.6545L79.2961 51.6783L78.2121 51.6804Z" fill="white"/>
<path d="M81.2903 46.7707C81.2943 48.8206 83.1929 50.5866 85.8275 50.5814C88.5879 50.5762 90.3534 48.7193 90.3495 46.6117C90.3456 44.5682 88.5654 42.6363 85.8121 42.6418C82.872 42.6476 81.2859 44.5802 81.2903 46.7707ZM80.2061 46.7524C80.2003 43.8391 82.1249 41.5586 85.8181 41.5513C89.4038 41.5442 91.4254 43.8234 91.4309 46.6164C91.4367 49.472 89.3301 51.6649 85.8296 51.6717C82.4112 51.6785 80.2113 49.4741 80.2061 46.7524Z" fill="white"/>
<path d="M92.4318 46.5676L96.0285 46.5606C97.5435 46.5577 98.7612 46.0563 98.7583 44.6041C98.7554 43.0786 97.5103 42.8111 95.988 42.814L92.4245 42.821L92.4318 46.5676ZM91.3943 51.655L91.375 41.7558L95.2278 41.7483C97.5681 41.7438 99.8149 42.1638 99.8196 44.602C99.824 46.895 97.8312 47.6182 95.3776 47.6231L92.4339 47.6289L92.4417 51.6529L91.3943 51.655Z" fill="white"/>
<path d="M99.8304 50.5562L98.7461 50.5583L98.7482 51.6423L99.8324 51.6402L99.8304 50.5562Z" fill="#E30613"/>
</svg>
