<svg width="32" height="20" viewBox="0 0 32 20" fill="none" xmlns="http://www.w3.org/2000/svg">
<path fill-rule="evenodd" clip-rule="evenodd" d="M17.4521 18.9614C17.4521 18.9614 18.0131 18.8981 18.3022 18.5815C18.5644 18.2921 18.5558 17.7458 18.5558 17.7458C18.5558 17.7458 18.5202 15.196 19.6785 14.8198C20.8194 14.4498 22.2851 17.2854 23.8403 18.3771C25.0151 19.2011 25.906 19.0202 25.906 19.0202L30.0617 18.9614C30.0617 18.9614 32.235 18.8248 31.2052 17.0774C31.1193 16.9345 30.6035 15.7839 28.1158 13.4223C25.5091 10.9504 25.8599 11.3502 28.9971 7.07286C30.9083 4.46885 31.6724 2.87877 31.4336 2.19859C31.207 1.54827 29.8012 1.72012 29.8012 1.72012L25.1227 1.75088C25.1227 1.75088 24.7763 1.70203 24.5193 1.85941C24.2683 2.01318 24.1051 2.37226 24.1051 2.37226C24.1051 2.37226 23.3662 4.38745 22.378 6.10144C20.2941 9.71757 19.4623 9.90932 19.1219 9.68501C18.3291 9.16041 18.5262 7.58208 18.5262 6.46052C18.5262 2.95474 19.0472 1.494 17.5147 1.11593C17.0058 0.989299 16.6325 0.906991 15.3317 0.89252C13.662 0.876239 12.2501 0.898851 11.4495 1.29954C10.9173 1.56546 10.5057 2.1597 10.7575 2.19407C11.0666 2.23568 11.7656 2.38673 12.1372 2.90319C12.6165 3.5707 12.6 5.06762 12.6 5.06762C12.6 5.06762 12.8753 9.19297 11.9566 9.70581C11.3262 10.0568 10.4614 9.3395 8.60411 6.05803C7.65331 4.3784 6.93522 2.52059 6.93522 2.52059C6.93522 2.52059 6.79716 2.17327 6.54796 1.98604C6.24839 1.76082 5.82987 1.69118 5.82987 1.69118L1.38502 1.72012C1.38502 1.72012 0.718159 1.73912 0.472428 2.03669C0.254484 2.29899 0.455931 2.84621 0.455931 2.84621C0.455931 2.84621 3.9361 11.1711 7.87734 15.367C11.4904 19.2128 15.5922 18.9614 15.5922 18.9614H17.4521Z" fill="white"/>
</svg>
