<?xml version="1.0" encoding="utf-8"?><svg xmlns="http://www.w3.org/2000/svg" xmlns:xlink="http://www.w3.org/1999/xlink"><symbol fill="none" viewBox="0 0 60 60" id="advantages--inst" xmlns="http://www.w3.org/2000/svg"><path d="M42.494 4.968a12.431 12.431 0 0112.394 12.394v24.786a12.43 12.43 0 01-12.394 12.394H17.71A12.43 12.43 0 015.314 42.148V17.362A12.431 12.431 0 0117.71 4.968h24.785zm0-4.957H17.71C8.165.011.357 7.82.357 17.362v24.786c0 9.543 7.808 17.351 17.352 17.351h24.785c9.543 0 17.351-7.808 17.351-17.351V17.362c0-9.543-7.808-17.35-17.35-17.35z" fill="#FF3A3A"/></symbol><symbol fill="none" viewBox="0 0 57 57" id="advantages--magnifier" xmlns="http://www.w3.org/2000/svg"><path d="M56.187 42.56c-.651-.694-2.95-2.744-7.175-5.457-4.257-2.736-7.396-4.442-8.297-4.84a.478.478 0 00-.489.061c-1.45 1.131-3.892 3.21-4.023 3.321-.846.725-.846.725-1.538.5-1.217-.4-4.998-2.408-8.293-5.71-3.296-3.303-5.407-7.178-5.806-8.394-.228-.693-.228-.693.499-1.539.112-.13 2.191-2.573 3.322-4.022a.477.477 0 00.061-.489c-.398-.902-2.104-4.04-4.84-8.296C16.892 3.47 14.844 1.172 14.15.52a.486.486 0 00-.485-.108 40.204 40.204 0 00-6.984 3.174A42.155 42.155 0 00.614 7.87a.478.478 0 00-.158.466c.261 1.215 1.507 6.286 5.373 13.31 3.945 7.169 6.679 10.842 12.472 16.615 5.793 5.773 9.582 8.672 16.758 12.616 7.025 3.867 12.098 5.114 13.31 5.372a.48.48 0 00.468-.157 42.12 42.12 0 004.283-6.068 40.246 40.246 0 003.174-6.984.486.486 0 00-.107-.481z" fill="#FF3A3A"/></symbol><symbol fill="none" viewBox="0 0 61 47" id="advantages--mail" xmlns="http://www.w3.org/2000/svg"><path d="M52.63.094H8.038A7.44 7.44 0 00.606 7.526v31.851a7.44 7.44 0 007.432 7.432H52.63a7.44 7.44 0 007.432-7.432V7.527A7.44 7.44 0 0052.63.093zm-1.882 12.293l-19.11 14.864a2.124 2.124 0 01-2.607 0L9.92 12.387a2.125 2.125 0 011.863-3.736c.27.078.523.208.743.384l17.807 13.85 17.807-13.85a2.123 2.123 0 012.607 3.352z" fill="#FF3A3A"/></symbol><symbol fill="none" viewBox="0 0 55 97" id="advantages--question" xmlns="http://www.w3.org/2000/svg"><path d="M28.901.112c5.412 0 10.057.99 13.935 2.97 3.968 1.89 6.945 4.455 8.93 7.696 1.983 3.24 2.976 6.705 2.976 10.396 0 3.51-.632 6.526-1.895 9.046-1.172 2.43-2.615 4.41-4.329 5.94-1.714 1.53-4.014 3.33-6.9 5.401-3.788 2.61-6.629 5.04-8.523 7.291-1.894 2.16-2.841 5.086-2.841 8.776v6.076H17.943v-6.751c0-3.87.63-7.156 1.894-9.856 1.352-2.7 2.93-4.86 4.735-6.481 1.804-1.62 4.194-3.465 7.17-5.536 3.427-2.25 5.953-4.275 7.576-6.075 1.624-1.8 2.436-4.14 2.436-7.021 0-3.69-1.218-6.526-3.653-8.506-2.435-2.07-5.773-3.105-10.012-3.105-7.215 0-13.484 3.24-18.805 9.72L.761 13.479C8.337 4.568 17.717.112 28.9.112zM24.436 77.61c2.706 0 4.961.9 6.765 2.7 1.804 1.8 2.706 4.006 2.706 6.616 0 2.61-.902 4.86-2.706 6.75-1.804 1.801-4.059 2.701-6.765 2.701-2.615 0-4.825-.9-6.629-2.7-1.804-1.89-2.705-4.14-2.705-6.75 0-2.611.901-4.816 2.705-6.617 1.804-1.8 4.014-2.7 6.63-2.7z" fill="#FF3A3A"/></symbol><symbol fill="none" viewBox="0 0 118 186" id="automation--lightning" xmlns="http://www.w3.org/2000/svg"><path d="M30.662 73.496L117.816 0l-48.01 66.865 21.982 5.681-28.275 28.265 18.707 5.858L.44 185.212l44.538-73.298-23.519-6.848 28.344-26.705-19.14-4.865z" fill="#FFCE50"/></symbol><symbol fill="none" viewBox="0 0 11 23" id="header--facebook" xmlns="http://www.w3.org/2000/svg"><path d="M6.9 7.22V5.323c0-.285.014-.506.04-.662.027-.156.088-.31.183-.461.095-.152.248-.256.46-.314.21-.059.492-.088.843-.088h1.918V0H7.278C5.505 0 4.231.417 3.457 1.25c-.774.834-1.161 2.062-1.161 3.684v2.287H0v3.797h2.296v11.019H6.9V11.019h3.065l.405-3.798H6.9z" fill="#fff"/></symbol><symbol fill="none" viewBox="0 0 23 23" id="header--insta" xmlns="http://www.w3.org/2000/svg"><path fill-rule="evenodd" clip-rule="evenodd" d="M11.5 7.645a3.67 3.67 0 110 7.34 3.67 3.67 0 010-7.34zm.001 9.323a5.662 5.662 0 115.662-5.661v.008a5.662 5.662 0 01-5.662 5.653zm5.865-10.196a1.322 1.322 0 11.001-2.644 1.322 1.322 0 010 2.644zm5.086 0a8.162 8.162 0 00-.509-2.679 5.407 5.407 0 00-1.271-1.948 5.38 5.38 0 00-1.95-1.273 8.11 8.11 0 00-2.678-.508c-1.153-.068-1.55-.068-4.543-.068-2.991 0-3.39 0-4.544.068A8.092 8.092 0 004.28.872 5.386 5.386 0 002.33 2.145a5.407 5.407 0 00-1.271 1.948A8.07 8.07 0 00.55 6.772C.482 7.925.482 8.322.482 11.314s0 3.39.068 4.544c.017.914.19 1.82.509 2.678a5.41 5.41 0 001.271 1.949c.55.56 1.215.995 1.95 1.271.857.32 1.763.492 2.677.509 1.154.068 1.553.068 4.544.068 2.992 0 3.39 0 4.543-.068a8.065 8.065 0 002.678-.509 5.644 5.644 0 003.221-3.22c.319-.858.49-1.764.509-2.678.067-1.154.067-1.552.067-4.544 0-2.992 0-3.389-.067-4.542z" fill="#fff"/></symbol><symbol fill="none" viewBox="0 0 100 63" id="header--r-top-logo" xmlns="http://www.w3.org/2000/svg"><path opacity=".4" fill-rule="evenodd" clip-rule="evenodd" d="M43.078 46.815l-.264 6.995L60.487 63 56.33 51.73l-13.252-4.915z" fill="#E30613"/><path d="M44.747 47.977l-1.525 5.48-42.1-21.893 13.452-6.405 30.173 22.818z" fill="#fff" stroke="#252525"/><path d="M37.022.843l18.467 50.055L.984 31.368 37.022.843z" fill="#fff" stroke="#252525"/><path d="M56.672 5.116L45.035 46.942 15.591 24.676l41.08-19.56zM40.951 11.494L16.748 23.018 37.057.94l3.894 10.553z" fill="#fff" stroke="#252525"/><path d="M60.777 41.594l6.875-.013s1.734-.182 1.73-1.886c-.003-1.751-1.737-1.927-1.737-1.927l-6.875.014.007 3.812zm.008 4.113l.012 6.013-4.468.009-.036-18.408 11.348-.022c5.788-.012 6.387 4.188 6.39 6.208.005 2.14-.649 4.772-3.582 5.773l4.11 6.413-5.057.01-2.817-4.384c-.347-.54-.695-1.08-1.042-1.622l-4.858.01zM78.212 51.68l-.018-9.023-3.846.007-.002-1.084 11.663-.023-2.472 1.09-4.259.008.018 9.023-1.084.002z" fill="#fff"/><path d="M81.29 46.77c.004 2.05 1.903 3.817 4.537 3.811 2.76-.005 4.526-1.862 4.523-3.97-.004-2.043-1.785-3.975-4.538-3.97-2.94.007-4.526 1.94-4.522 4.13zm-1.084-.018c-.006-2.913 1.919-5.193 5.612-5.2 3.586-.008 5.607 2.271 5.613 5.064.006 2.856-2.1 5.049-5.601 5.056-3.419.007-5.619-2.198-5.624-4.92z" fill="#fff"/><path d="M92.432 46.568l3.596-.007c1.515-.003 2.733-.505 2.73-1.957-.003-1.525-1.248-1.793-2.77-1.79l-3.564.007.008 3.747zm-1.038 5.087l-.019-9.9 3.853-.007c2.34-.004 4.587.416 4.592 2.854.004 2.293-1.989 3.016-4.442 3.021l-2.944.006.008 4.024-1.048.002z" fill="#fff"/><path d="M99.83 50.556l-1.084.002.002 1.084 1.084-.002-.002-1.084z" fill="#E30613"/></symbol><symbol fill="none" viewBox="0 0 32 20" id="header--vk" xmlns="http://www.w3.org/2000/svg"><path fill-rule="evenodd" clip-rule="evenodd" d="M17.452 18.961s.561-.063.85-.38c.262-.289.254-.835.254-.835s-.036-2.55 1.122-2.926c1.141-.37 2.607 2.465 4.162 3.557 1.175.824 2.066.643 2.066.643l4.156-.059s2.173-.136 1.143-1.884c-.086-.143-.601-1.293-3.09-3.655-2.606-2.472-2.255-2.072.882-6.35C30.908 4.47 31.672 2.88 31.434 2.2c-.227-.65-1.633-.479-1.633-.479l-4.678.03s-.347-.048-.604.11c-.25.153-.414.512-.414.512s-.739 2.015-1.727 3.73c-2.084 3.616-2.916 3.807-3.256 3.583-.793-.525-.596-2.103-.596-3.224 0-3.506.521-4.967-1.011-5.345-.51-.127-.883-.209-2.183-.223-1.67-.017-3.082.006-3.883.407-.532.265-.943.86-.691.894.309.042 1.008.193 1.38.71.479.667.462 2.164.462 2.164s.275 4.125-.643 4.638c-.63.35-1.496-.367-3.353-3.648-.95-1.68-1.669-3.537-1.669-3.537s-.138-.348-.387-.535c-.3-.225-.718-.295-.718-.295l-4.445.03s-.667.018-.913.316c-.218.262-.016.81-.016.81s3.48 8.324 7.421 12.52c3.613 3.846 7.715 3.594 7.715 3.594h1.86z" fill="#fff"/></symbol><symbol fill="none" viewBox="0 0 461 356" id="welcome-heading--0" xmlns="http://www.w3.org/2000/svg"><rect x="1" y="1" width="459" height="290" rx="7" stroke="#fff" stroke-width="2"/><path d="M21 14h422a5 5 0 015 5v253a5 5 0 01-5 5H21a5 5 0 01-5-5V19a5 5 0 015-5z" stroke="#fff" stroke-width="2"/><rect x="47" y="46" width="237" height="201" rx="5" stroke="#fff" stroke-width="2"/><rect x="63" y="63" width="206" height="166" rx="5" stroke="#fff" stroke-width="2"/><mask id="ja" fill="#fff"><rect x="308" y="91" width="119" height="10" rx="1"/></mask><rect x="308" y="91" width="119" height="10" rx="1" stroke="#fff" stroke-width="4" mask="url(#ja)"/><mask id="jb" fill="#fff"><rect x="377" y="78" width="50" height="37" rx="1"/></mask><rect x="377" y="78" width="50" height="37" rx="1" stroke="#fff" stroke-width="4" mask="url(#jb)"/><mask id="jc" fill="#fff"><rect x="308" y="194" width="119" height="10" rx="1"/></mask><rect x="308" y="194" width="119" height="10" rx="1" stroke="#fff" stroke-width="4" mask="url(#jc)"/><mask id="jd" fill="#fff"><rect x="377" y="181" width="50" height="37" rx="1"/></mask><rect x="377" y="181" width="50" height="37" rx="1" stroke="#fff" stroke-width="4" mask="url(#jd)"/><path stroke="#fff" stroke-width="2" d="M96 139.904h139.314v16.432H96z"/><path d="M159.83 123.06c1.307 0 2.329.448 3.066 1.344.747.896 1.12 2.091 1.12 3.584v.42c0 1.437-.373 2.585-1.12 3.444-.737.859-1.759 1.288-3.066 1.288-1.297 0-2.319-.429-3.066-1.288-.737-.859-1.106-2.007-1.106-3.444v-.42c0-1.484.369-2.674 1.106-3.57.747-.905 1.769-1.358 3.066-1.358zm0 8.75c.821 0 1.461-.299 1.918-.896.457-.607.686-1.442.686-2.506v-.434c0-1.12-.233-1.997-.7-2.632-.457-.635-1.092-.952-1.904-.952-.803 0-1.433.322-1.89.966-.457.635-.686 1.507-.686 2.618v.434c0 1.064.229 1.899.686 2.506.457.597 1.087.896 1.89.896zm6.628-7.98c.532-.513 1.25-.77 2.156-.77.905 0 1.624.257 2.156.77s.798 1.204.798 2.072c0 .887-.266 1.591-.798 2.114-.532.513-1.251.77-2.156.77-.906 0-1.624-.257-2.156-.77-.532-.523-.798-1.227-.798-2.114 0-.868.266-1.559.798-2.072zm3.332 9.17h-1.274l3.36-4.942 3.066-4.858h1.274l-3.514 5.138L169.79 133zm-2.534-5.628c.326.355.779.532 1.358.532.578 0 1.026-.177 1.344-.532.326-.355.49-.845.49-1.47 0-.616-.164-1.097-.49-1.442-.318-.345-.766-.518-1.344-.518-.579 0-1.032.173-1.358.518-.318.345-.476.826-.476 1.442 0 .625.158 1.115.476 1.47zm6.776.812c.532-.513 1.25-.77 2.156-.77.905 0 1.624.257 2.156.77s.798 1.204.798 2.072c0 .887-.266 1.591-.798 2.114-.532.513-1.251.77-2.156.77-.906 0-1.624-.257-2.156-.77-.532-.523-.798-1.227-.798-2.114 0-.868.266-1.559.798-2.072zm.798 3.542c.326.355.779.532 1.358.532.578 0 1.026-.177 1.344-.532.326-.355.49-.845.49-1.47 0-.607-.164-1.083-.49-1.428-.318-.345-.766-.518-1.344-.518-.579 0-1.032.173-1.358.518-.318.345-.476.821-.476 1.428 0 .625.158 1.115.476 1.47z" fill="#C4C4C4"/><path stroke="#fff" stroke-width="2" d="M25 291h413v64H25z"/><path stroke="#fff" stroke-width="2" d="M364 291h35v64h-35z"/></symbol><symbol fill="none" viewBox="0 0 404 402" id="welcome-heading--1" xmlns="http://www.w3.org/2000/svg"><rect x="43.867" y="1" width="315.745" height="290.194" rx="7" stroke="#fff" stroke-width="2"/><path d="M110.454 291.232v-29.116a6 6 0 00-6-6H63.92a6 6 0 01-6-6V18.736a6 6 0 016-6h275.642a6 6 0 016 6v231.38a6 6 0 01-6 6h-42.804a6 6 0 00-6 6v29.116" stroke="#fff" stroke-width="2"/><rect x="83.598" y="34.78" width="237.134" height="190.142" rx="5" stroke="#fff" stroke-width="2"/><path d="M102.479 256.135h202.032" stroke="#fff" stroke-width="2"/><circle cx="125.419" cy="273.926" r="4.232" stroke="#fff" stroke-width="2"/><circle cx="144.736" cy="273.926" r="4.232" stroke="#fff" stroke-width="2"/><circle cx="256.619" cy="273.926" r="4.232" stroke="#fff" stroke-width="2"/><circle cx="164.054" cy="273.926" r="4.232" stroke="#fff" stroke-width="2"/><circle cx="275.937" cy="273.926" r="4.232" stroke="#fff" stroke-width="2"/><path stroke="#fff" stroke-width="2" d="M65.648 291.427h271.669v18.123H65.648zM1 309.645h401.905v91.356H1z"/><path stroke="#fff" stroke-width="2" d="M16 321h372v69H16zM279.162 309.597V402M131 130.904h139.314v16.432H131z"/><path d="M189.906 121.984l-1.26.714 6.16-.084V124h-8.134v-1.33l2.534-1.568c1.279-.784 2.114-1.344 2.506-1.68.765-.653 1.148-1.353 1.148-2.1.009-.597-.177-1.069-.56-1.414-.383-.345-.896-.518-1.54-.518-.691 0-1.241.187-1.652.56-.411.364-.616.859-.616 1.484 0 .56.149 1.129.448 1.708h-1.792a4.035 4.035 0 01-.378-1.75c0-1.017.359-1.825 1.078-2.422.728-.607 1.694-.91 2.898-.91 1.157 0 2.077.285 2.758.854.691.56 1.036 1.316 1.036 2.268 0 .504-.107.971-.322 1.4-.205.429-.541.845-1.008 1.246a14.21 14.21 0 01-1.414 1.05c-.467.299-1.097.667-1.89 1.106zm14.03-7.784v1.386h-5.628c-.121 1.521-.266 2.604-.434 3.248.579-1.064 1.554-1.596 2.926-1.596.98 0 1.745.285 2.296.854.551.56.826 1.325.826 2.296 0 1.148-.378 2.063-1.134 2.744-.756.672-1.759 1.008-3.01 1.008-1.036 0-1.927-.233-2.674-.7-.737-.467-1.218-1.083-1.442-1.848l1.288-.924c.177.663.527 1.185 1.05 1.568s1.139.574 1.848.574c.747 0 1.349-.215 1.806-.644.467-.429.7-1.003.7-1.722 0-.625-.191-1.125-.574-1.498-.383-.373-.896-.56-1.54-.56-.607 0-1.139.149-1.596.448a2.838 2.838 0 00-1.022 1.134l-1.302-.308c.383-1.587.616-3.407.7-5.46h6.916zm2.367.63c.532-.513 1.251-.77 2.156-.77.906 0 1.624.257 2.156.77s.798 1.204.798 2.072c0 .887-.266 1.591-.798 2.114-.532.513-1.25.77-2.156.77-.905 0-1.624-.257-2.156-.77-.532-.523-.798-1.227-.798-2.114 0-.868.266-1.559.798-2.072zm3.332 9.17h-1.274l3.36-4.942 3.066-4.858h1.274l-3.514 5.138-2.912 4.662zm-2.534-5.628c.327.355.78.532 1.358.532.579 0 1.027-.177 1.344-.532.327-.355.49-.845.49-1.47 0-.616-.163-1.097-.49-1.442-.317-.345-.765-.518-1.344-.518-.578 0-1.031.173-1.358.518-.317.345-.476.826-.476 1.442 0 .625.159 1.115.476 1.47zm6.776.812c.532-.513 1.251-.77 2.156-.77.906 0 1.624.257 2.156.77s.798 1.204.798 2.072c0 .887-.266 1.591-.798 2.114-.532.513-1.25.77-2.156.77-.905 0-1.624-.257-2.156-.77-.532-.523-.798-1.227-.798-2.114 0-.868.266-1.559.798-2.072zm.798 3.542c.327.355.78.532 1.358.532.579 0 1.027-.177 1.344-.532.327-.355.49-.845.49-1.47 0-.607-.163-1.083-.49-1.428-.317-.345-.765-.518-1.344-.518-.578 0-1.031.173-1.358.518-.317.345-.476.821-.476 1.428 0 .625.159 1.115.476 1.47z" fill="#C4C4C4"/></symbol><symbol fill="none" viewBox="0 0 374 409" id="welcome-heading--2" xmlns="http://www.w3.org/2000/svg"><rect x="1" y="1" width="343" height="315" rx="7" stroke="#fff" stroke-width="2"/><rect x="30" y="30" width="286" height="237" rx="5" stroke="#fff" stroke-width="2"/><circle cx="276.232" cy="292.774" r="4.232" stroke="#fff" stroke-width="2"/><circle cx="299.55" cy="292.774" r="4.232" stroke="#fff" stroke-width="2"/><path stroke="#fff" stroke-width="2" d="M41 316h263v48H41zM16 364h311v15H16zM103 138.904h139.314v16.432H103z"/><path fill="#fff" d="M102 138h72v18h-72z"/><path d="M168.604 122.2v1.386h-5.628c-.122 1.521-.266 2.604-.434 3.248.578-1.064 1.554-1.596 2.926-1.596.98 0 1.745.285 2.296.854.55.56.826 1.325.826 2.296 0 1.148-.378 2.063-1.134 2.744-.756.672-1.76 1.008-3.01 1.008-1.036 0-1.928-.233-2.674-.7-.738-.467-1.218-1.083-1.442-1.848l1.288-.924c.177.663.527 1.185 1.05 1.568.522.383 1.138.574 1.848.574.746 0 1.348-.215 1.806-.644.466-.429.7-1.003.7-1.722 0-.625-.192-1.125-.574-1.498-.383-.373-.896-.56-1.54-.56-.607 0-1.139.149-1.596.448a2.838 2.838 0 00-1.022 1.134l-1.302-.308c.382-1.587.616-3.407.7-5.46h6.916zm5.419-.14c1.307 0 2.329.448 3.066 1.344.747.896 1.12 2.091 1.12 3.584v.42c0 1.437-.373 2.585-1.12 3.444-.737.859-1.759 1.288-3.066 1.288-1.297 0-2.319-.429-3.066-1.288-.737-.859-1.106-2.007-1.106-3.444v-.42c0-1.484.369-2.674 1.106-3.57.747-.905 1.769-1.358 3.066-1.358zm0 8.75c.822 0 1.461-.299 1.918-.896.458-.607.686-1.442.686-2.506v-.434c0-1.12-.233-1.997-.7-2.632-.457-.635-1.092-.952-1.904-.952-.802 0-1.432.322-1.89.966-.457.635-.686 1.507-.686 2.618v.434c0 1.064.229 1.899.686 2.506.458.597 1.088.896 1.89.896zm6.628-7.98c.532-.513 1.251-.77 2.156-.77.905 0 1.624.257 2.156.77s.798 1.204.798 2.072c0 .887-.266 1.591-.798 2.114-.532.513-1.251.77-2.156.77-.905 0-1.624-.257-2.156-.77-.532-.523-.798-1.227-.798-2.114 0-.868.266-1.559.798-2.072zm3.332 9.17h-1.274l3.36-4.942 3.066-4.858h1.274l-3.514 5.138-2.912 4.662zm-2.534-5.628c.327.355.779.532 1.358.532.579 0 1.027-.177 1.344-.532.327-.355.49-.845.49-1.47 0-.616-.163-1.097-.49-1.442-.317-.345-.765-.518-1.344-.518-.579 0-1.031.173-1.358.518-.317.345-.476.826-.476 1.442 0 .625.159 1.115.476 1.47zm6.776.812c.532-.513 1.251-.77 2.156-.77.905 0 1.624.257 2.156.77s.798 1.204.798 2.072c0 .887-.266 1.591-.798 2.114-.532.513-1.251.77-2.156.77-.905 0-1.624-.257-2.156-.77-.532-.523-.798-1.227-.798-2.114 0-.868.266-1.559.798-2.072zm.798 3.542c.327.355.779.532 1.358.532.579 0 1.027-.177 1.344-.532.327-.355.49-.845.49-1.47 0-.607-.163-1.083-.49-1.428-.317-.345-.765-.518-1.344-.518-.579 0-1.031.173-1.358.518-.317.345-.476.821-.476 1.428 0 .625.159 1.115.476 1.47z" fill="#C4C4C4"/></symbol><symbol fill="none" viewBox="0 0 312 353" id="welcome-heading--3" xmlns="http://www.w3.org/2000/svg"><rect x="1" y="1" width="310" height="269" rx="7" stroke="#fff" stroke-width="2"/><path stroke="#fff" stroke-width="2" d="M94 124h139v16H94z"/><path fill="#fff" d="M93 123h106v18H93z"/><path d="M148.266 108.586V107.2h8.092v1.428c-1.577 1.372-2.674 2.665-3.29 3.878-.616 1.213-.91 2.711-.882 4.494h-1.988c0-3.435 1.661-6.239 4.984-8.414h-6.916zm16.043-1.386v1.386h-5.628c-.121 1.521-.266 2.604-.434 3.248.579-1.064 1.554-1.596 2.926-1.596.98 0 1.745.285 2.296.854.551.56.826 1.325.826 2.296 0 1.148-.378 2.063-1.134 2.744-.756.672-1.759 1.008-3.01 1.008-1.036 0-1.927-.233-2.674-.7-.737-.467-1.218-1.083-1.442-1.848l1.288-.924c.177.663.527 1.185 1.05 1.568s1.139.574 1.848.574c.747 0 1.349-.215 1.806-.644.467-.429.7-1.003.7-1.722 0-.625-.191-1.125-.574-1.498-.383-.373-.896-.56-1.54-.56-.607 0-1.139.149-1.596.448a2.838 2.838 0 00-1.022 1.134l-1.302-.308c.383-1.587.616-3.407.7-5.46h6.916zm2.367.63c.532-.513 1.251-.77 2.156-.77.906 0 1.624.257 2.156.77s.798 1.204.798 2.072c0 .887-.266 1.591-.798 2.114-.532.513-1.25.77-2.156.77-.905 0-1.624-.257-2.156-.77-.532-.523-.798-1.227-.798-2.114 0-.868.266-1.559.798-2.072zm3.332 9.17h-1.274l3.36-4.942 3.066-4.858h1.274l-3.514 5.138-2.912 4.662zm-2.534-5.628c.327.355.78.532 1.358.532.579 0 1.027-.177 1.344-.532.327-.355.49-.845.49-1.47 0-.616-.163-1.097-.49-1.442-.317-.345-.765-.518-1.344-.518-.578 0-1.031.173-1.358.518-.317.345-.476.826-.476 1.442 0 .625.159 1.115.476 1.47zm6.776.812c.532-.513 1.251-.77 2.156-.77.906 0 1.624.257 2.156.77s.798 1.204.798 2.072c0 .887-.266 1.591-.798 2.114-.532.513-1.25.77-2.156.77-.905 0-1.624-.257-2.156-.77-.532-.523-.798-1.227-.798-2.114 0-.868.266-1.559.798-2.072zm.798 3.542c.327.355.78.532 1.358.532.579 0 1.027-.177 1.344-.532.327-.355.49-.845.49-1.47 0-.607-.163-1.083-.49-1.428-.317-.345-.765-.518-1.344-.518-.578 0-1.031.173-1.358.518-.317.345-.476.821-.476 1.428 0 .625.159 1.115.476 1.47z" fill="#C4C4C4"/><path stroke="#fff" stroke-width="2" d="M124 270h63v72h-63z"/><rect x="11" y="13" width="290" height="234" rx="2" stroke="#fff" stroke-width="2"/><path stroke="#fff" stroke-width="2" d="M60 342h176v10H60z"/></symbol><symbol fill="none" viewBox="0 0 408 353" id="welcome-heading--4" xmlns="http://www.w3.org/2000/svg"><rect x="1" y="1" width="406" height="269" rx="7" stroke="#fff" stroke-width="2"/><path stroke="#fff" stroke-width="2" d="M164 270h79v72h-79z"/><rect x="12" y="12" width="384" height="230" rx="5" stroke="#fff" stroke-width="2"/><path stroke="#fff" stroke-width="2" d="M105 342h198v10H105z"/><circle cx="204" cy="256" r="7" stroke="#fff" stroke-width="2"/><path fill="#73F367" d="M141 123h141v18H141z"/><path d="M191 112.044l4.284-4.844h1.358v9.8h-1.596v-8.036l-2.996 4.326-1.05-1.246zm11.775-4.984c1.307 0 2.329.448 3.066 1.344.747.896 1.12 2.091 1.12 3.584v.42c0 1.437-.373 2.585-1.12 3.444-.737.859-1.759 1.288-3.066 1.288-1.297 0-2.319-.429-3.066-1.288-.737-.859-1.106-2.007-1.106-3.444v-.42c0-1.484.369-2.674 1.106-3.57.747-.905 1.769-1.358 3.066-1.358zm0 8.75c.822 0 1.461-.299 1.918-.896.458-.607.686-1.442.686-2.506v-.434c0-1.12-.233-1.997-.7-2.632-.457-.635-1.092-.952-1.904-.952-.802 0-1.432.322-1.89.966-.457.635-.686 1.507-.686 2.618v.434c0 1.064.229 1.899.686 2.506.458.597 1.088.896 1.89.896zm9.68-8.75c1.307 0 2.329.448 3.066 1.344.747.896 1.12 2.091 1.12 3.584v.42c0 1.437-.373 2.585-1.12 3.444-.737.859-1.759 1.288-3.066 1.288-1.297 0-2.319-.429-3.066-1.288-.737-.859-1.106-2.007-1.106-3.444v-.42c0-1.484.369-2.674 1.106-3.57.747-.905 1.769-1.358 3.066-1.358zm0 8.75c.821 0 1.461-.299 1.918-.896.457-.607.686-1.442.686-2.506v-.434c0-1.12-.233-1.997-.7-2.632-.457-.635-1.092-.952-1.904-.952-.803 0-1.433.322-1.89.966-.457.635-.686 1.507-.686 2.618v.434c0 1.064.229 1.899.686 2.506.457.597 1.087.896 1.89.896zm6.628-7.98c.532-.513 1.25-.77 2.156-.77.905 0 1.624.257 2.156.77s.798 1.204.798 2.072c0 .887-.266 1.591-.798 2.114-.532.513-1.251.77-2.156.77-.906 0-1.624-.257-2.156-.77-.532-.523-.798-1.227-.798-2.114 0-.868.266-1.559.798-2.072zm3.332 9.17h-1.274l3.36-4.942 3.066-4.858h1.274l-3.514 5.138-2.912 4.662zm-2.534-5.628c.326.355.779.532 1.358.532.578 0 1.026-.177 1.344-.532.326-.355.49-.845.49-1.47 0-.616-.164-1.097-.49-1.442-.318-.345-.766-.518-1.344-.518-.579 0-1.032.173-1.358.518-.318.345-.476.826-.476 1.442 0 .625.158 1.115.476 1.47zm6.776.812c.532-.513 1.25-.77 2.156-.77.905 0 1.624.257 2.156.77s.798 1.204.798 2.072c0 .887-.266 1.591-.798 2.114-.532.513-1.251.77-2.156.77-.906 0-1.624-.257-2.156-.77-.532-.523-.798-1.227-.798-2.114 0-.868.266-1.559.798-2.072zm.798 3.542c.326.355.779.532 1.358.532.578 0 1.026-.177 1.344-.532.326-.355.49-.845.49-1.47 0-.607-.164-1.083-.49-1.428-.318-.345-.766-.518-1.344-.518-.579 0-1.032.173-1.358.518-.318.345-.476.821-.476 1.428 0 .625.158 1.115.476 1.47z" fill="#C4C4C4"/></symbol><symbol fill="none" viewBox="0 0 404 403" id="welcome-heading--monitor" xmlns="http://www.w3.org/2000/svg"><path stroke="#fff" stroke-width="2" d="M1.047 310.145h401.905v91.356H1.047zM65.695 291.927h271.669v18.123H65.695z"/><rect x="43.914" y="1.5" width="315.745" height="290.194" rx="7" stroke="#fff" stroke-width="2"/><rect x="83.644" y="35.28" width="237.134" height="190.142" rx="5" stroke="#fff" stroke-width="2"/><circle cx="125.466" cy="262.05" r="4.232" stroke="#fff" stroke-width="2"/><circle cx="144.783" cy="262.05" r="4.232" stroke="#fff" stroke-width="2"/><circle cx="164.101" cy="262.05" r="4.232" stroke="#fff" stroke-width="2"/><circle cx="256.665" cy="262.05" r="4.232" stroke="#fff" stroke-width="2"/><circle cx="275.984" cy="262.05" r="4.232" stroke="#fff" stroke-width="2"/></symbol><symbol fill="none" viewBox="0 0 74 74" id="welcome-section--calendar" xmlns="http://www.w3.org/2000/svg"><path stroke="#252525" stroke-width="2" d="M1.79 18.015l54.334-16.4 16.5 54.66L18.29 72.677z"/><path stroke="#252525" stroke-width="2" d="M7.086 20.41L53.157 6.503 67.192 53l-46.07 13.907z"/><path d="M12.659 14.036l2.005 5.652a1.52 1.52 0 002.873-.997l-1.928-5.68a1.562 1.562 0 10-2.95 1.025zM39.67 5.934l2.005 5.653a1.52 1.52 0 002.872-.997L42.62 4.91a1.562 1.562 0 10-2.95 1.024z" fill="#fff" stroke="#252525" stroke-width="2"/><path stroke="#252525" stroke-width="2" d="M7.985 37.788l53.637-16.74M46.148 59.356c1.758-2.498 4.432-8.161 4.476-11.446.045-3.285-.166-6.03-.277-6.992 2.478-.26 7.68-1.022 8.657-1.998.977-.977 2.247-1.749 2.987-2.71L46.148 59.355zM25.633 45.284l-1.203-3.367 4.209-5.412 3.487-1.262L38.5 56.528l-3.127 1.022-5.532-17.918-4.208 5.652zM35.795 37.227l-.842-2.525 13.95-4.33 1.082 3.187-4.028 20.444-3.007 1.082 3.969-20.924-11.124 3.066z"/></symbol><symbol fill="none" viewBox="0 0 70 52" id="welcome-section--flag" xmlns="http://www.w3.org/2000/svg"><path d="M1 47.835V5.575s4.895 2.628 13.876 2.628c15.348 0 27.227-5.046 37.214-6.097 7.99-.841 14.402 1.051 16.61 2.102v43.627c-2.488-1.086-9.02-3.196-15.243-2.944-7.78.316-11.564 2.313-27.122 4.836C13.888 51.746 4.259 49.307 1 47.835z" stroke="#fff" stroke-width="2"/><path d="M1.237 19.043c1.774.873 6.762 2.382 12.545 2.382 10.798 0 28.106-5.478 41.285-5.478 7.702 0 13.736 2.302 13.736 2.302M1.078 34.843c.953.74 6.145 2.239 12.942 2.302 8.495.08 23.342-5.399 38.824-5.399 8.155 0 14.794 2.012 15.72 2.62" stroke="#fff" stroke-width="2"/></symbol><symbol fill="none" viewBox="0 0 77 70" id="welcome-section--money" xmlns="http://www.w3.org/2000/svg"><path d="M15.844 57.487c-3.408-3.029-8.993-5.995-11.36-7.1-.552-.71-1.372-1.42-2.13-3.313-.378-.947-.63-2.919-.71-3.787 4.418-2.445 13.964-7.904 16.804-10.176 3.55-2.84 6.626-14.437 14.2-22.247 6.425-6.626 14.12-8.598 17.276-9.703.947-.158 3.74-.095 7.337 1.42 3.597 1.515 11.438 8.993 14.91 12.543v9.467c-2.21.158-8.216.039-11.834 2.84-7.336 5.68-14.2 22.01-19.17 27.926-3.553 4.23-10.57 9.625-14.436 12.78-2.209-2.288-7.479-7.62-10.887-10.65z" stroke="#252525" stroke-width="2"/><path d="M1.645 43.228c1.814.79 6.72 3.503 9.94 6.154 3.218 2.65 8.914 8.204 11.36 10.65 4.811-2.367 12.542-6.39 17.276-10.65 4.733-4.26 10.65-20.827 15.383-25.323 5.917-5.621 12.622-7.495 16.567-8.994M22.944 60.032v4.26M28.388 16.012c-.237-1.578-.9-5.16-1.657-6.863-.946-2.13-3.55-3.077-6.863-3.55-3.313-.474-9.662-2.582-11.597-2.84-3.55-.474-6.141.798-6.39 1.42-.473 1.183 0 2.366 1.42 4.023 1.136 1.325 2.21 1.815 2.604 1.893-1.026 1.026-3.55 3.314-3.55 4.26 0 1.275 1.42 2.367 2.84 2.84 1.136.379 2.05.631 2.366.71-.552.947-1.656 3.03-1.656 3.787 0 .947 1.627 1.183 2.603 1.183.947 0 1.262-.236 1.42-.236-.473 1.104-1.23 3.455-.473 4.023.946.71 1.893.237 2.603 0 .568-.19 1.499-.71 1.893-.947-.079 1.026-.142 3.266.237 4.024.473.946 3.55-1.657 4.26-2.367.568-.568 1.657-2.13 2.13-2.84-.079.394-.095 1.183.473 1.183s2.446-1.735 3.314-2.603" stroke="#252525" stroke-width="2"/><path d="M56.314 35.419c-3.598 0-4.26-.71-4.26-.71s-.957.206-2.13 1.183c-1.42 1.183-2.13 3.155-2.13 4.023l1.183 1.183c-.63 1.026-1.94 3.314-2.13 4.26-.189.947 2.761.71 4.26.474-.236.315-1.176 1.204-2.13 2.84-1.656 2.84-1.656 5.206-.71 6.153.758.757 2.21-.316 2.84-.947-.079 1.42-.094 4.402.474 4.97.568.568 2.287-.71 3.076-1.42.08 1.263.426 3.976 1.184 4.734.757.757 2.524-.947 3.313-1.894.394 1.341 1.562 4.26 3.076 5.207 1.515.947 3.787-2.446 4.734-4.26.946 1.104 2.84 4.496 4.97 4.496 2.436 0 3.786-4.496 3.786-8.993 0-3.076-2.13-14.91-2.84-17.276-.71-2.367-2.13-4.023-4.26-4.733s-7.81.71-12.306.71z" fill="#fff" stroke="#252525" stroke-width="2"/><path d="M5.668 10.095c.71.08 2.887.237 4.023.237 1.136 0 3.945-.158 5.207-.237M13.951 25.952c.868-1.183 2.887-3.881 4.023-5.207 1.136-1.325 2.367-3.392 2.84-4.26M7.56 17.905c.947-.63 3.172-2.082 4.497-2.84a121.78 121.78 0 003.55-2.13M9.928 22.639c1.34-1.263 3.55-3.314 4.733-4.26.533-.427 2.827-2.707 3.694-3.654M51.107 54.115c.158-.868.974-3.315 1.894-4.97 1.183-2.13 4.418-4.733 5.916-6.153M50.871 46.068c.947-.71 2.755-2.087 3.787-2.603.757-.379 2.353-1.254 2.669-1.412M54.658 57.428c.237-1.183.852-3.881 1.42-5.206.71-1.657 3.55-5.444 4.023-6.154.38-.568 1.267-1.91 1.503-2.226M59.153 60.268c.158-1.42 1.092-4.63 1.894-6.863.925-2.576 2.258-6.51 2.731-7.535M66.961 61.451c0-1.656-.14-5.556.08-7.635.296-2.784 1.223-7.068 1.144-8.094" stroke="#252525" stroke-width="2"/><path d="M19.395 5.496c-1.735.158-5.49.103-5.916.813-.71 1.183.562 1.684 1.441 2.303.274.193.61.379.452.3 0 0-.515.634-.752 1.818-.185.928-.195 2.205.752 2.205.757 0 1.465-.347 1.544-.426.08-.08-.645 2.13.113 2.32.757.189 1.34-.158 1.42-.237 0 0 .662 2.32 1.42 2.13.757-.19 1.183-.71 1.183-.947 0 0 .142 2.083.71 1.894.71-.237 2.13-1.894 2.84-2.84.71-.947 1.42-2.604 1.657-4.497.07-.564 0-1.499 0-1.893M62.34 34.882c-2.125 1.687-6.407 5.58-5.85 6.54.557.96 1.78.684 2.323.426-.142.67-.148 2.044.967 2.168 1.115.124 1.704-.207 1.859-.387.064.555.325 1.734.851 2.013.527.279 1.097.116 1.317 0-.013.735.185 2.245 1.084 2.4.898.155 2.62-1.535 3.368-2.4.361.8 1.285 2.57 2.09 3.252 1.007.852 2.013.503 2.478 0 .372-.403 1.032-2.336 1.316-3.252M19.585 31.974L41.69 47.638l3.832 1.666M30.915 13.146L53.298 26.81l5.11 2.389" stroke="#252525" stroke-width="2"/><path d="M38.931 25.982c.8.445 1.343 1.084 1.63 1.915.284.816.272 1.729-.035 2.739l2.534 1.412-1.156 2.075-2.427-1.353c-.893 1.314-2.032 2.176-3.415 2.586l-.791-2.373c1.084-.403 1.877-1.055 2.379-1.957.234-.42.326-.778.276-1.074a.902.902 0 00-.48-.69.996.996 0 00-.584-.145c-.195.012-.415.105-.658.278-.239.162-.555.429-.95.8-1.025.972-1.93 1.548-2.715 1.728-.779.17-1.558.038-2.336-.396-.81-.451-1.329-1.096-1.559-1.936-.224-.85-.157-1.766.202-2.747l-2.29-1.276 1.157-2.074 2.304 1.285c.747-.953 1.662-1.584 2.747-1.893l.83 2.195c-.925.384-1.602.96-2.03 1.728-.2.358-.285.667-.254.925.02.253.143.442.368.568a.703.703 0 00.516.086c.17-.04.371-.149.605-.327.24-.189.59-.504 1.05-.945.942-.871 1.8-1.4 2.575-1.585.78-.196 1.616-.046 2.507.45z" fill="#000"/></symbol><symbol fill="none" viewBox="0 0 70 70" id="welcome-section--robot" xmlns="http://www.w3.org/2000/svg"><rect x="5.564" y="15.12" width="58.702" height="53.59" rx="10" stroke="#fff" stroke-width="2"/><rect x="10.038" y="18.953" width="50.395" height="45.922" rx="7" stroke="#fff" stroke-width="2"/><rect x="1.213" y="33.65" width="4.359" height="15.891" rx="2.18" stroke="#fff" stroke-width="2"/><rect x="64.353" y="33.65" width="4.359" height="15.891" rx="2.18" stroke="#fff" stroke-width="2"/><circle cx="21.497" cy="34.886" r="5.709" stroke="#fff" stroke-width="2"/><circle cx="48.973" cy="34.886" r="5.709" stroke="#fff" stroke-width="2"/><circle cx="21.497" cy="34.886" r="2.5" stroke="#fff" stroke-width="2"/><circle cx="48.973" cy="34.886" r="2.5" stroke="#fff" stroke-width="2"/><path d="M30.75 46.026l4.486-9.181 4.485 9.181h-8.97z" stroke="#fff" stroke-width="2"/><rect x="24.719" y="52.179" width="21.261" height="5.812" rx="2.906" stroke="#fff" stroke-width="2"/><path stroke="#fff" stroke-width="2" d="M32.438 8.68h4.317v6.432h-4.317z"/><circle cx="34.596" cy="5.06" r="3.587" stroke="#fff" stroke-width="2"/></symbol><symbol fill="none" viewBox="0 0 82 81" id="welcome-section--study" xmlns="http://www.w3.org/2000/svg"><path d="M14.436 56.878c-.506.586-1.615 2.97-2.001 7.83-.482 6.076 0 12.697 0 13.212 0 .514 2.25 1.767 4.532 1.671 2.282-.096 4.629-1.221 4.757-1.671.129-.45-.353-12.086-.482-13.5-.128-1.415-1.308-4.747-1.776-5.912-.219-.545-.731-1.43-.892-1.63M13.913 51.94v4.864h5.088V51.94M21.426 41.758l19.37 15.32 39.017-31.23L40.76 2.02 1.862 25.848l14.564 11.858" stroke="#252525" stroke-width="2"/><path d="M45.648 25.396c0 1.815-1.875 3.608-4.626 3.608-2.751 0-4.627-1.793-4.627-3.608 0-1.814 1.876-3.607 4.627-3.607 2.75 0 4.626 1.793 4.626 3.607z" stroke="#252525" stroke-width="2"/><path d="M35.346 25.672C29.543 29.076 18.323 35.74 16.67 37.48c-1.403 1.477-1.554 2.903-1.636 4.784-.065 1.505-.027 4.225 0 5.397.327.327 1.112.965 1.636.9.523-.066.981-.437 1.145-.614.122-1.008.621-3.311 1.635-4.456 1.014-1.145 14.406-9.527 20.975-13.575" stroke="#252525" stroke-width="2"/><path d="M37.429 28.82c-6.075 3.587-17.459 10.436-18.991 12.246-.85 1.005-1.408 2.339-1.591 2.876-.04-.943.11-2.943.668-3.693 1.449-1.949 12.805-8.615 18.814-12.49M1.645 25.912v1.65l13.983 11.313M20.38 42.763L40.648 58.83l39.358-31.502V25.82" stroke="#252525" stroke-width="2"/><path d="M21.346 43.705c-.14 1.51-.412 4.716-.384 5.468.035.94-.026 3.08.21 3.866.794 2.659 4.352 6.512 9.194 10.343 3.872 3.065 8.37 5.735 10.134 6.687 2.903-1.683 9.17-5.684 10.424-6.687 1.568-1.253 7.65-6.8 9.505-9.847 1.874-3.078 1.56-5.058 1.56-6.556 0-.642.011-3.727 0-5.19M14.89 47.481c-.411.043-1.34.476-1.76 1.864-.527 1.737 1.078 3.6 2.972 3.68 1.894.079 4.022-1.235 3.55-3.522-.339-1.648-1.262-2.022-1.604-2.022" stroke="#252525" stroke-width="2"/></symbol><symbol fill="none" viewBox="0 0 65 67" id="welcome-section--tool" xmlns="http://www.w3.org/2000/svg"><path d="M28.216 37.044c4.479-4.317 9.826-12.817 11.94-16.527l8.162 6.476c-3.53 3.463-11.252 11.184-13.896 14.368-3.305 3.98-14.03 21.18-17.268 23.07-2.59 1.51-5.217-.046-6.206-1.013-1.17-.81-3.252-3.116-2.226-5.868 1.281-3.44 13.896-15.11 19.494-20.506z" stroke="#fff" stroke-width="2"/><path d="M9.306 15.051c-.723.552-2.438.184-3.082 0L2 18.461c.105.915.964 3.823 2.41 5.581 2.433 2.963 3.025 3.15 5.166 4.232l4.397-3.101c-.079-.864-.64-2.3.746-3.298 1.386-.998 3.885-.17 6.46 1.457 1.104.698 8.354 8.839 11.7 13.045l-.662.624 21.068 27.86c1.343.074 4.325-.06 5.518-1.194 1.492-1.416 1.715-3.504 1.566-4.25-.119-.596-15.56-18.095-23.265-26.77l-.654.443-9.146-12.456a4 4 0 01-.775-2.367v-3.216l-2.263-5.023c.478-.552 2.075-2.053 4.636-3.643 2.562-1.59 7.14-1.472 9.108-1.214v-.994c-1.38-.791-5.608-2.351-11.481-2.263-5.873.088-13.414 6.513-16.45 9.715.074.957.36 2.558-.773 3.422z" fill="#252525" stroke="#fff" stroke-width="2"/><path d="M41.392 9.787c2.034-3.16 8.386-6.186 11.307-7.304l1.786 1.677c-2.092 2.49-5.976 6.494-6.276 8.044-.226 1.169-.118 2.465 1.938 4.034s3.563 1.77 4.916 1.337c1.082-.346 5.157-5.407 6.942-7.788l1.84 1.515c-.072 1.407-.833 5.443-3.3 10.334-2.468 4.89-9.252 5.5-12.336 5.194-2.525-1.84-7.64-5.681-7.9-6.33-.324-.812-1.46-6.763 1.083-10.713zM16.658 60.784c-.247.32-.68.537-1.28.536-.601 0-1.313-.226-1.96-.724-.648-.497-1.05-1.127-1.205-1.709-.155-.58-.057-1.053.19-1.374.246-.322.679-.538 1.28-.537.6 0 1.313.226 1.96.724.648.497 1.05 1.128 1.204 1.71.155.58.058 1.053-.189 1.374z" stroke="#fff" stroke-width="2"/></symbol></svg>