<svg width="74" height="74" viewBox="0 0 74 74" fill="none" xmlns="http://www.w3.org/2000/svg">
<rect x="1.79123" y="18.0154" width="56.754" height="57.0973" transform="rotate(-16.7966 1.79123 18.0154)" stroke="#252525" stroke-width="2"/>
<rect x="7.08615" y="20.4096" width="48.1244" height="48.5678" transform="rotate(-16.7966 7.08615 20.4096)" stroke="#252525" stroke-width="2"/>
<path d="M12.6588 14.036L14.6644 19.6881C14.9491 20.4903 15.8369 20.9025 16.6334 20.6022C17.4005 20.313 17.8001 19.4676 17.5366 18.6912L15.6093 13.0119C15.3337 12.2 14.4551 11.7621 13.6409 12.0309C12.8091 12.3056 12.3659 13.2105 12.6588 14.036Z" fill="white" stroke="#252525" stroke-width="2"/>
<path d="M39.6696 5.9344L41.6751 11.5866C41.9598 12.3888 42.8476 12.8009 43.6441 12.5006C44.4112 12.2114 44.8108 11.366 44.5473 10.5897L42.62 4.91037C42.3445 4.09842 41.4658 3.66051 40.6516 3.92936C39.8199 4.20401 39.3767 5.10892 39.6696 5.9344Z" fill="white" stroke="#252525" stroke-width="2"/>
<line x1="7.98528" y1="37.7877" x2="61.6219" y2="21.0481" stroke="#252525" stroke-width="2"/>
<path d="M46.1484 59.3556C47.9058 56.8583 50.5801 51.1949 50.6244 47.9097C50.6687 44.6245 50.4578 41.8794 50.3468 40.9175C52.8255 40.6585 58.0272 39.8964 59.0039 38.9197C59.9806 37.943 61.2508 37.1714 61.9907 36.2095L46.1484 59.3556Z" stroke="#252525" stroke-width="2"/>
<path d="M25.6326 45.2841L24.4297 41.917L28.6387 36.5055L32.1261 35.2428L38.4997 56.5281L35.373 57.5502L29.8413 39.6321L25.6326 45.2841Z" stroke="#252525" stroke-width="2"/>
<path d="M35.795 37.2271L34.9531 34.7017L48.9029 30.3725L49.9852 33.5593L45.9566 54.0027L42.9502 55.085L46.9187 34.1606L35.795 37.2271Z" stroke="#252525" stroke-width="2"/>
</svg>
