<svg width="70" height="52" viewBox="0 0 70 52" fill="none" xmlns="http://www.w3.org/2000/svg">
<path d="M1 47.8349V5.57503C1 5.57503 5.89491 8.20313 14.8762 8.20313C30.2243 8.20313 42.1033 3.15718 52.0901 2.10594C60.0795 1.26495 66.4921 3.15718 68.6997 4.20842V47.8349C66.2118 46.7486 59.6801 44.6391 53.4567 44.8914C45.6776 45.2068 41.8931 47.2041 26.3347 49.7271C13.888 51.7455 4.25879 49.3066 1 47.8349Z" stroke="white" stroke-width="2"/>
<path d="M1.2373 19.0432C3.01052 19.9165 7.99879 21.425 13.7819 21.425C24.5796 21.425 41.8878 15.9468 55.0674 15.9468C62.7687 15.9468 68.8028 18.2492 68.8028 18.2492" stroke="white" stroke-width="2"/>
<path d="M1.07812 34.8429C2.03083 35.5839 7.22331 37.0818 14.0196 37.1453C22.515 37.2247 37.3618 31.7465 52.8439 31.7465C60.9987 31.7465 67.6379 33.7578 68.5641 34.3665" stroke="white" stroke-width="2"/>
</svg>
