<svg width="77" height="70" viewBox="0 0 77 70" fill="none" xmlns="http://www.w3.org/2000/svg">
<path d="M15.8444 57.4873C12.4364 54.458 6.85115 51.4918 4.4845 50.3873C3.93229 49.6773 3.11185 48.9674 2.35452 47.074C1.97586 46.1274 1.72342 44.1552 1.64453 43.2874C6.06227 40.8419 15.6077 35.3828 18.4477 33.1108C21.9977 30.2709 25.0743 18.6743 32.6476 10.8644C39.0734 4.23777 46.7685 2.26557 49.9241 1.16113C50.8707 1.00335 53.6634 1.06646 57.2607 2.58112C60.858 4.09577 68.6994 11.5744 72.1705 15.1243V24.5909C69.9617 24.7487 63.9552 24.6299 60.3373 27.4309C53.0007 33.1108 46.1374 49.4407 41.1675 55.3573C37.6139 59.5878 30.5965 64.9816 26.731 68.1372C24.5221 65.8494 19.2524 60.5166 15.8444 57.4873Z" stroke="#252525" stroke-width="2"/>
<path d="M1.64453 43.2284C3.45896 44.0173 8.3658 46.7311 11.5844 49.3817C14.8031 52.0323 20.4988 57.5861 22.9443 60.0316C27.7565 57.665 35.4875 53.6417 40.2208 49.3817C44.9541 45.1217 50.8707 28.5552 55.604 24.0586C61.5206 18.4378 68.2261 16.5642 72.1705 15.0654" stroke="#252525" stroke-width="2"/>
<path d="M22.9443 60.0316V64.2916" stroke="#252525" stroke-width="2"/>
<path d="M28.3879 16.012C28.1512 14.4342 27.4886 10.8527 26.7312 9.14874C25.7846 7.01876 23.1813 6.0721 19.868 5.59878C16.5547 5.12545 10.2059 3.01676 8.27142 2.75882C4.72146 2.28547 2.12996 3.55723 1.88148 4.17879C1.40843 5.3621 1.88148 6.54544 3.30147 8.20209C4.43746 9.52741 5.51034 10.0165 5.90478 10.0954C4.87923 11.1209 2.35481 13.4087 2.35481 14.3554C2.35481 15.6298 3.7748 16.722 5.19478 17.1953C6.33077 17.574 7.24588 17.8264 7.56143 17.9053C7.00921 18.852 5.90478 20.9346 5.90478 21.692C5.90478 22.6386 7.53229 22.8753 8.50809 22.8753C9.45486 22.8753 9.7703 22.6386 9.92807 22.6386C9.45474 23.7431 8.69742 26.0939 9.45474 26.6619C10.4014 27.3719 11.3481 26.8986 12.0581 26.6619C12.626 26.4726 13.5569 25.9519 13.9514 25.7153C13.8725 26.7408 13.8094 28.9812 14.188 29.7386C14.6614 30.6852 17.738 28.0819 18.448 27.3719C19.016 26.8039 20.1046 25.2419 20.578 24.5319C20.4991 24.9264 20.4833 25.7153 21.0513 25.7153C21.6193 25.7153 23.4968 23.9797 24.3646 23.1119" stroke="#252525" stroke-width="2"/>
<path d="M56.3137 35.4185C52.7164 35.4185 52.0543 34.7085 52.0543 34.7085C52.0543 34.7085 51.0967 34.9148 49.9243 35.8918C48.5043 37.0751 47.7944 39.0473 47.7943 39.9151L48.9774 41.0984C48.3464 42.124 47.0369 44.4117 46.8476 45.3584C46.6582 46.3051 49.6085 46.0684 51.1072 45.8317C50.8706 46.1473 49.9314 47.0362 48.9774 48.6717C47.321 51.5117 47.3208 53.8783 48.2675 54.825C49.0248 55.5823 50.4762 54.5094 51.1072 53.8783C51.0283 55.2983 51.0126 58.2803 51.5806 58.8483C52.1486 59.4163 53.8683 58.1383 54.6572 57.4283C54.7361 58.6905 55.0832 61.4042 55.8405 62.1616C56.5978 62.9189 58.3649 61.2149 59.1538 60.2683C59.5483 61.6094 60.7158 64.5282 62.2305 65.4749C63.7451 66.4215 66.0171 63.0293 66.9637 61.2149C67.9104 62.3193 69.8041 65.7115 71.9337 65.7115C74.3703 65.7115 75.7203 61.2149 75.7203 56.7183C75.7203 53.6417 73.5904 41.8084 72.8804 39.4418C72.1704 37.0751 70.7504 35.4185 68.6204 34.7085C66.4904 33.9985 60.8103 35.4185 56.3137 35.4185Z" fill="white" stroke="#252525" stroke-width="2"/>
<path d="M5.66797 10.0955C6.37796 10.1743 8.55527 10.3321 9.69126 10.3321C10.8273 10.3321 13.6357 10.1743 14.8979 10.0955" stroke="#252525" stroke-width="2"/>
<path d="M13.9512 25.9519C14.8189 24.7686 16.8385 22.0706 17.9745 20.7453C19.1105 19.42 20.3411 17.3531 20.8144 16.4854" stroke="#252525" stroke-width="2"/>
<path d="M7.56055 17.9053C8.5072 17.2742 10.7318 15.8227 12.0572 15.0653C13.3825 14.308 14.976 13.3298 15.6071 12.9354" stroke="#252525" stroke-width="2"/>
<path d="M9.92773 22.6386C11.2688 21.3764 13.4777 19.3253 14.661 18.3787C15.1941 17.9522 17.4875 15.6718 18.3553 14.7251" stroke="#252525" stroke-width="2"/>
<path d="M51.1074 54.115C51.2652 53.2472 52.0813 50.8001 53.0007 49.145C54.1841 47.0151 57.4185 44.4117 58.9173 42.9918" stroke="#252525" stroke-width="2"/>
<path d="M50.8711 46.0684C51.8178 45.3584 53.6259 43.981 54.6577 43.4651C55.4151 43.0864 57.011 42.2111 57.3266 42.0533" stroke="#252525" stroke-width="2"/>
<path d="M54.6582 57.4283C54.8949 56.245 55.5102 53.547 56.0782 52.2217C56.7882 50.565 59.6282 46.7784 60.1015 46.0684C60.4801 45.5004 61.3677 44.1573 61.6043 43.8417" stroke="#252525" stroke-width="2"/>
<path d="M59.1533 60.2683C59.3111 58.8483 60.2449 55.6378 61.0466 53.405C61.9716 50.8292 63.305 46.8953 63.7784 45.8698" stroke="#252525" stroke-width="2"/>
<path d="M66.9611 61.4514C66.9611 59.7948 66.8205 55.8955 67.0413 53.8159C67.3369 51.032 68.2638 46.7478 68.1849 45.7222" stroke="#252525" stroke-width="2"/>
<path d="M19.3952 5.49603C17.6596 5.65381 13.9045 5.59879 13.4786 6.30878C12.7688 7.4921 14.0409 7.99306 14.9204 8.61233C15.1941 8.80508 15.5298 8.99098 15.372 8.91209C15.372 8.91209 14.8568 9.54648 14.6201 10.7298C14.4345 11.6581 14.4254 12.9354 15.372 12.9354C16.1294 12.9354 16.8375 12.5876 16.9164 12.5087C16.9953 12.4298 16.2714 14.6394 17.0287 14.8287C17.786 15.018 18.3698 14.6709 18.4487 14.592C18.4487 14.592 19.1113 16.9113 19.8687 16.722C20.626 16.5327 21.052 16.012 21.052 15.7754C21.052 15.7754 21.194 17.858 21.762 17.6687C22.472 17.432 23.892 15.7754 24.602 14.8287C25.312 13.882 26.0219 12.2254 26.2586 10.3321C26.3291 9.76847 26.2586 8.8332 26.2586 8.43876" stroke="#252525" stroke-width="2"/>
<path d="M62.3405 34.8815C60.2153 36.5687 55.9326 40.462 56.49 41.4221C57.0474 42.3822 58.2706 42.106 58.8126 41.8479C58.6707 42.5189 58.6655 43.892 59.7804 44.0159C60.8954 44.1398 61.4839 43.8094 61.6387 43.6287C61.7032 44.1836 61.9639 45.3631 62.4904 45.6419C63.0169 45.9206 63.5873 45.758 63.8067 45.6419C63.7938 46.3774 63.9925 47.8873 64.8907 48.0421C65.7888 48.197 67.5103 46.5065 68.2588 45.6419C68.6201 46.442 69.5441 48.2125 70.3493 48.8938C71.3559 49.7455 72.3625 49.3971 72.827 48.8938C73.1987 48.4912 73.8594 46.5581 74.1433 45.6419" stroke="#252525" stroke-width="2"/>
<path d="M19.585 31.9745L41.6895 47.6367L45.5219 49.3029" stroke="#252525" stroke-width="2"/>
<path d="M30.915 13.1465L53.2979 26.8093L58.4074 29.1975" stroke="#252525" stroke-width="2"/>
<path d="M38.9313 25.9818C39.7302 26.427 40.2737 27.0656 40.5618 27.8973C40.8454 28.7132 40.8333 29.6259 40.5256 30.6357L43.0604 32.0485L41.9045 34.1225L39.4771 32.7696C38.5836 34.0838 37.4453 34.946 36.0621 35.3564L35.271 32.9825C36.3546 32.5797 37.1476 31.9276 37.65 31.0263C37.884 30.6064 37.9762 30.2484 37.9265 29.9522C37.8825 29.6458 37.7222 29.4155 37.4457 29.2614C37.2409 29.1472 37.0462 29.0991 36.8616 29.1171C36.6669 29.1293 36.4475 29.2219 36.2036 29.3946C35.9653 29.5572 35.6489 29.8238 35.2544 30.1945C34.2292 31.1668 33.3241 31.743 32.5392 31.923C31.76 32.0927 30.9812 31.9607 30.2028 31.5269C29.3937 31.0759 28.8741 30.4306 28.6441 29.5909C28.4197 28.741 28.4871 27.8254 28.846 26.8442L26.5569 25.5684L27.7129 23.4944L30.0173 24.7788C30.7635 23.8255 31.6789 23.1947 32.7635 22.8864L33.5941 25.081C32.6688 25.4646 31.9921 26.0406 31.564 26.8087C31.3642 27.1672 31.2795 27.4757 31.3099 27.7342C31.33 27.9871 31.4528 28.1763 31.6781 28.3019C31.8522 28.399 32.0241 28.4277 32.1939 28.388C32.3636 28.3484 32.5653 28.2394 32.7991 28.0609C33.0385 27.8722 33.3885 27.5572 33.8493 27.1159C34.7912 26.2449 35.6495 25.7165 36.4241 25.5308C37.2045 25.3348 38.0403 25.4852 38.9313 25.9818Z" fill="black"/>
</svg>
