<svg width="82" height="81" viewBox="0 0 82 81" fill="none" xmlns="http://www.w3.org/2000/svg">
<path d="M14.4362 56.8783C13.9298 57.4635 12.8206 59.8488 12.4349 64.7088C11.9529 70.7839 12.4349 77.4054 12.4349 77.9197C12.4349 78.4339 14.685 79.6875 16.9671 79.5911C19.2493 79.4947 21.5958 78.3697 21.7243 77.9197C21.8529 77.4696 21.3708 65.8339 21.2422 64.4196C21.1136 63.0053 19.9336 59.673 19.4661 58.5077C19.2475 57.9629 18.735 57.0777 18.5743 56.8783" stroke="#252525" stroke-width="2"/>
<path d="M13.9131 51.9399V56.8035H19.0009V51.9399" stroke="#252525" stroke-width="2"/>
<path d="M21.426 41.7577L40.7969 57.0779L79.8125 25.8479L40.7614 2.0213L1.8623 25.8479L16.4256 37.706" stroke="#252525" stroke-width="2"/>
<path d="M45.648 25.3965C45.648 27.2112 43.7729 29.0038 41.0218 29.0038C38.2706 29.0038 36.3955 27.2112 36.3955 25.3965C36.3955 23.5818 38.2706 21.7892 41.0218 21.7892C43.7729 21.7892 45.648 23.5818 45.648 25.3965Z" stroke="#252525" stroke-width="2"/>
<path d="M35.3456 25.6719C29.5428 29.0765 18.3233 35.7402 16.6697 37.4805C15.2666 38.9572 15.1159 40.3834 15.0342 42.2642C14.9687 43.7688 15.0069 46.4891 15.0342 47.6612C15.3612 47.9883 16.1462 48.6261 16.6697 48.5607C17.1932 48.4953 17.6512 48.1245 17.8148 47.9474C17.9374 46.9388 18.4362 44.6356 19.4502 43.4908C20.4642 42.3459 33.8559 33.9642 40.425 29.9164" stroke="#252525" stroke-width="2"/>
<path d="M37.429 28.8191C31.3538 32.4066 19.9705 39.256 18.438 41.0663C17.5877 42.0707 17.03 43.4048 16.8467 43.9416C16.8075 42.9989 16.9571 40.9991 17.5145 40.2494C18.9637 38.3003 30.3196 31.6341 36.3294 27.7585" stroke="#252525" stroke-width="2"/>
<path d="M1.64453 25.9124V27.5622L15.6278 38.8746" stroke="#252525" stroke-width="2"/>
<path d="M20.3799 42.7633L40.648 58.8286L80.0059 27.3266V25.8199" stroke="#252525" stroke-width="2"/>
<path d="M21.3455 43.705C21.206 45.2142 20.9339 48.4206 20.962 49.1728C20.997 50.1132 20.9363 52.2532 21.1711 53.0387C21.9661 55.6979 25.5245 59.5513 30.3655 63.3823C34.2383 66.4471 38.7356 69.1172 40.5002 70.0692C43.4025 68.3858 49.6707 64.3854 50.9244 63.3823C52.4917 62.1286 58.5749 56.5818 60.4295 53.535C62.3032 50.4568 61.9886 48.4765 61.9886 46.9787C61.9886 46.3373 62.0002 43.2522 61.9886 41.7895" stroke="#252525" stroke-width="2"/>
<path d="M14.8902 47.481C14.4786 47.5238 13.5504 47.9567 13.1295 49.3455C12.6034 51.0816 14.2083 52.9459 16.1021 53.0248C17.996 53.1037 20.124 51.7902 19.6527 49.5034C19.313 47.8552 18.3901 47.481 18.0482 47.481" stroke="#252525" stroke-width="2"/>
</svg>
