<svg width="65" height="67" viewBox="0 0 65 67" fill="none" xmlns="http://www.w3.org/2000/svg">
<path d="M28.216 37.0436C32.6949 32.7265 38.0419 24.2272 40.1555 20.5172L48.3178 26.9928C44.7877 30.4555 37.0664 38.1768 34.4222 41.3607C31.1169 45.3405 20.3916 62.5415 17.1537 64.4302C14.5635 65.9412 11.9373 64.3852 10.9479 63.4184C9.77867 62.6089 7.69647 60.302 8.72178 57.5498C10.0034 54.1096 22.6175 42.44 28.216 37.0436Z" stroke="white" stroke-width="2"/>
<path d="M9.30641 15.0514C8.58337 15.6028 6.86761 15.2354 6.22373 15.0514L2 18.4601C2.10464 19.376 2.96448 22.2835 4.4091 24.0422C6.84295 27.0051 7.43494 27.1918 9.57626 28.2741L13.9729 25.1728C13.8944 24.3092 13.3326 22.8734 14.7188 21.8753C16.105 20.8773 18.6036 21.7048 21.179 23.3325C22.2832 24.0304 29.5329 32.171 32.8795 36.3768L32.2167 37.0013L53.2853 64.8606C54.6276 64.9351 57.6103 64.8009 58.8033 63.6675C60.2947 62.2507 60.5184 60.1628 60.3693 59.4171C60.25 58.8206 44.8095 41.322 37.1041 32.6473L36.4495 33.0903L27.3044 20.6343C26.8005 19.9479 26.5287 19.1186 26.5287 18.267V15.0514L24.2656 10.0282C24.7439 9.47621 26.3411 7.97478 28.9023 6.38504C31.4636 4.79529 36.0415 4.91305 38.0102 5.17065V4.17706C36.6303 3.38586 32.402 1.82556 26.5287 1.91387C20.6555 2.00219 13.1152 8.42742 10.0793 11.629C10.1529 12.5858 10.4393 14.1873 9.30641 15.0514Z" fill="#252525" stroke="white" stroke-width="2"/>
<path d="M41.3917 9.78717C43.4259 6.6275 49.7777 3.6013 52.6994 2.48315L54.4848 4.16037C52.3928 6.64915 48.5087 10.6536 48.2088 12.2042C47.9827 13.3728 48.0913 14.6687 50.1472 16.2377C52.2032 17.8068 53.71 18.0081 55.0626 17.5753C56.1447 17.229 60.2198 12.1677 62.0052 9.78717L63.8448 11.3021C63.7726 12.7088 63.0116 16.7449 60.5444 21.6359C58.0773 26.5269 51.2927 27.1365 48.2088 26.8299C45.684 24.9903 40.5695 21.149 40.3098 20.4997C39.9852 19.6882 38.849 13.7367 41.3917 9.78717Z" stroke="white" stroke-width="2"/>
<path d="M16.6583 60.7838C16.4115 61.1048 15.9789 61.3208 15.3785 61.3202C14.7769 61.3197 14.0646 61.0938 13.4172 60.5963C12.7699 60.0987 12.3684 59.4685 12.2131 58.8872C12.0582 58.3072 12.1556 57.8336 12.4024 57.5125C12.6491 57.1915 13.0818 56.9755 13.6821 56.976C14.2838 56.9766 14.9961 57.2024 15.6434 57.7C16.2908 58.1975 16.6923 58.8278 16.8475 59.4091C17.0025 59.9891 16.9051 60.4627 16.6583 60.7838Z" stroke="white" stroke-width="2"/>
</svg>
