<svg width="461" height="356" viewBox="0 0 461 356" fill="none" xmlns="http://www.w3.org/2000/svg">
<rect x="1" y="1" width="459" height="290" rx="7" stroke="white" stroke-width="2"/>
<path d="M21 14H443C445.761 14 448 16.2386 448 19V272C448 274.761 445.761 277 443 277H94.2647H21C18.2386 277 16 274.761 16 272V19C16 16.2386 18.2386 14 21 14Z" stroke="white" stroke-width="2"/>
<rect x="47" y="46" width="237" height="201" rx="5" stroke="white" stroke-width="2"/>
<rect x="63" y="63" width="206" height="166" rx="5" stroke="white" stroke-width="2"/>
<mask id="path-5-inside-1" fill="white">
<rect x="308" y="91" width="119" height="10" rx="1"/>
</mask>
<rect x="308" y="91" width="119" height="10" rx="1" stroke="white" stroke-width="4" mask="url(#path-5-inside-1)"/>
<mask id="path-6-inside-2" fill="white">
<rect x="377" y="78" width="50" height="37" rx="1"/>
</mask>
<rect x="377" y="78" width="50" height="37" rx="1" stroke="white" stroke-width="4" mask="url(#path-6-inside-2)"/>
<mask id="path-7-inside-3" fill="white">
<rect x="308" y="194" width="119" height="10" rx="1"/>
</mask>
<rect x="308" y="194" width="119" height="10" rx="1" stroke="white" stroke-width="4" mask="url(#path-7-inside-3)"/>
<mask id="path-8-inside-4" fill="white">
<rect x="377" y="181" width="50" height="37" rx="1"/>
</mask>
<rect x="377" y="181" width="50" height="37" rx="1" stroke="white" stroke-width="4" mask="url(#path-8-inside-4)"/>
<rect x="96" y="139.904" width="139.314" height="16.4323" stroke="white" stroke-width="2"/>
<path d="M159.83 123.06C161.137 123.06 162.159 123.508 162.896 124.404C163.643 125.3 164.016 126.495 164.016 127.988V128.408C164.016 129.845 163.643 130.993 162.896 131.852C162.159 132.711 161.137 133.14 159.83 133.14C158.533 133.14 157.511 132.711 156.764 131.852C156.027 130.993 155.658 129.845 155.658 128.408V127.988C155.658 126.504 156.027 125.314 156.764 124.418C157.511 123.513 158.533 123.06 159.83 123.06ZM159.83 131.81C160.651 131.81 161.291 131.511 161.748 130.914C162.205 130.307 162.434 129.472 162.434 128.408V127.974C162.434 126.854 162.201 125.977 161.734 125.342C161.277 124.707 160.642 124.39 159.83 124.39C159.027 124.39 158.397 124.712 157.94 125.356C157.483 125.991 157.254 126.863 157.254 127.974V128.408C157.254 129.472 157.483 130.307 157.94 130.914C158.397 131.511 159.027 131.81 159.83 131.81ZM166.458 123.83C166.99 123.317 167.708 123.06 168.614 123.06C169.519 123.06 170.238 123.317 170.77 123.83C171.302 124.343 171.568 125.034 171.568 125.902C171.568 126.789 171.302 127.493 170.77 128.016C170.238 128.529 169.519 128.786 168.614 128.786C167.708 128.786 166.99 128.529 166.458 128.016C165.926 127.493 165.66 126.789 165.66 125.902C165.66 125.034 165.926 124.343 166.458 123.83ZM169.79 133H168.516L171.876 128.058L174.942 123.2H176.216L172.702 128.338L169.79 133ZM167.256 127.372C167.582 127.727 168.035 127.904 168.614 127.904C169.192 127.904 169.64 127.727 169.958 127.372C170.284 127.017 170.448 126.527 170.448 125.902C170.448 125.286 170.284 124.805 169.958 124.46C169.64 124.115 169.192 123.942 168.614 123.942C168.035 123.942 167.582 124.115 167.256 124.46C166.938 124.805 166.78 125.286 166.78 125.902C166.78 126.527 166.938 127.017 167.256 127.372ZM174.032 128.184C174.564 127.671 175.282 127.414 176.188 127.414C177.093 127.414 177.812 127.671 178.344 128.184C178.876 128.697 179.142 129.388 179.142 130.256C179.142 131.143 178.876 131.847 178.344 132.37C177.812 132.883 177.093 133.14 176.188 133.14C175.282 133.14 174.564 132.883 174.032 132.37C173.5 131.847 173.234 131.143 173.234 130.256C173.234 129.388 173.5 128.697 174.032 128.184ZM174.83 131.726C175.156 132.081 175.609 132.258 176.188 132.258C176.766 132.258 177.214 132.081 177.532 131.726C177.858 131.371 178.022 130.881 178.022 130.256C178.022 129.649 177.858 129.173 177.532 128.828C177.214 128.483 176.766 128.31 176.188 128.31C175.609 128.31 175.156 128.483 174.83 128.828C174.512 129.173 174.354 129.649 174.354 130.256C174.354 130.881 174.512 131.371 174.83 131.726Z" fill="#C4C4C4"/>
<rect x="25" y="291" width="413" height="64" stroke="white" stroke-width="2"/>
<rect x="364" y="291" width="35" height="64" stroke="white" stroke-width="2"/>
</svg>
