<svg width="404" height="402" viewBox="0 0 404 402" fill="none" xmlns="http://www.w3.org/2000/svg">
<rect x="43.8672" y="1" width="315.745" height="290.194" rx="7" stroke="white" stroke-width="2"/>
<path d="M110.454 291.232V262.116C110.454 258.802 107.768 256.116 104.454 256.116H63.9199C60.6062 256.116 57.9199 253.43 57.9199 250.116V18.7356C57.9199 15.4219 60.6062 12.7356 63.9199 12.7356H339.562C342.875 12.7356 345.562 15.4219 345.562 18.7356V250.116C345.562 253.43 342.875 256.116 339.562 256.116H296.758C293.444 256.116 290.758 258.802 290.758 262.116V291.232" stroke="white" stroke-width="2"/>
<rect x="83.5977" y="34.7797" width="237.134" height="190.142" rx="5" stroke="white" stroke-width="2"/>
<path d="M102.479 256.135L304.511 256.135" stroke="white" stroke-width="2"/>
<circle cx="125.419" cy="273.926" r="4.23191" stroke="white" stroke-width="2"/>
<circle cx="144.736" cy="273.926" r="4.23191" stroke="white" stroke-width="2"/>
<circle cx="256.619" cy="273.926" r="4.23191" stroke="white" stroke-width="2"/>
<circle cx="164.054" cy="273.926" r="4.23191" stroke="white" stroke-width="2"/>
<circle cx="275.937" cy="273.926" r="4.23191" stroke="white" stroke-width="2"/>
<rect x="65.6484" y="291.427" width="271.669" height="18.1227" stroke="white" stroke-width="2"/>
<rect x="1" y="309.645" width="401.905" height="91.3555" stroke="white" stroke-width="2"/>
<rect x="16" y="321" width="372" height="69" stroke="white" stroke-width="2"/>
<line x1="279.162" y1="309.597" x2="279.162" y2="402" stroke="white" stroke-width="2"/>
<rect x="131" y="130.904" width="139.314" height="16.4323" stroke="white" stroke-width="2"/>
<path d="M189.906 121.984L188.646 122.698L194.806 122.614V124H186.672V122.67L189.206 121.102C190.485 120.318 191.32 119.758 191.712 119.422C192.477 118.769 192.86 118.069 192.86 117.322C192.869 116.725 192.683 116.253 192.3 115.908C191.917 115.563 191.404 115.39 190.76 115.39C190.069 115.39 189.519 115.577 189.108 115.95C188.697 116.314 188.492 116.809 188.492 117.434C188.492 117.994 188.641 118.563 188.94 119.142H187.148C186.896 118.61 186.77 118.027 186.77 117.392C186.77 116.375 187.129 115.567 187.848 114.97C188.576 114.363 189.542 114.06 190.746 114.06C191.903 114.06 192.823 114.345 193.504 114.914C194.195 115.474 194.54 116.23 194.54 117.182C194.54 117.686 194.433 118.153 194.218 118.582C194.013 119.011 193.677 119.427 193.21 119.828C192.743 120.22 192.272 120.57 191.796 120.878C191.329 121.177 190.699 121.545 189.906 121.984ZM203.936 114.2V115.586H198.308C198.187 117.107 198.042 118.19 197.874 118.834C198.453 117.77 199.428 117.238 200.8 117.238C201.78 117.238 202.545 117.523 203.096 118.092C203.647 118.652 203.922 119.417 203.922 120.388C203.922 121.536 203.544 122.451 202.788 123.132C202.032 123.804 201.029 124.14 199.778 124.14C198.742 124.14 197.851 123.907 197.104 123.44C196.367 122.973 195.886 122.357 195.662 121.592L196.95 120.668C197.127 121.331 197.477 121.853 198 122.236C198.523 122.619 199.139 122.81 199.848 122.81C200.595 122.81 201.197 122.595 201.654 122.166C202.121 121.737 202.354 121.163 202.354 120.444C202.354 119.819 202.163 119.319 201.78 118.946C201.397 118.573 200.884 118.386 200.24 118.386C199.633 118.386 199.101 118.535 198.644 118.834C198.196 119.123 197.855 119.501 197.622 119.968L196.32 119.66C196.703 118.073 196.936 116.253 197.02 114.2H203.936ZM206.303 114.83C206.835 114.317 207.554 114.06 208.459 114.06C209.365 114.06 210.083 114.317 210.615 114.83C211.147 115.343 211.413 116.034 211.413 116.902C211.413 117.789 211.147 118.493 210.615 119.016C210.083 119.529 209.365 119.786 208.459 119.786C207.554 119.786 206.835 119.529 206.303 119.016C205.771 118.493 205.505 117.789 205.505 116.902C205.505 116.034 205.771 115.343 206.303 114.83ZM209.635 124H208.361L211.721 119.058L214.787 114.2H216.061L212.547 119.338L209.635 124ZM207.101 118.372C207.428 118.727 207.881 118.904 208.459 118.904C209.038 118.904 209.486 118.727 209.803 118.372C210.13 118.017 210.293 117.527 210.293 116.902C210.293 116.286 210.13 115.805 209.803 115.46C209.486 115.115 209.038 114.942 208.459 114.942C207.881 114.942 207.428 115.115 207.101 115.46C206.784 115.805 206.625 116.286 206.625 116.902C206.625 117.527 206.784 118.017 207.101 118.372ZM213.877 119.184C214.409 118.671 215.128 118.414 216.033 118.414C216.939 118.414 217.657 118.671 218.189 119.184C218.721 119.697 218.987 120.388 218.987 121.256C218.987 122.143 218.721 122.847 218.189 123.37C217.657 123.883 216.939 124.14 216.033 124.14C215.128 124.14 214.409 123.883 213.877 123.37C213.345 122.847 213.079 122.143 213.079 121.256C213.079 120.388 213.345 119.697 213.877 119.184ZM214.675 122.726C215.002 123.081 215.455 123.258 216.033 123.258C216.612 123.258 217.06 123.081 217.377 122.726C217.704 122.371 217.867 121.881 217.867 121.256C217.867 120.649 217.704 120.173 217.377 119.828C217.06 119.483 216.612 119.31 216.033 119.31C215.455 119.31 215.002 119.483 214.675 119.828C214.358 120.173 214.199 120.649 214.199 121.256C214.199 121.881 214.358 122.371 214.675 122.726Z" fill="#C4C4C4"/>
</svg>
