<svg width="374" height="409" viewBox="0 0 374 409" fill="none" xmlns="http://www.w3.org/2000/svg">
<rect x="1" y="1" width="343" height="315" rx="7" stroke="white" stroke-width="2"/>
<rect x="30" y="30" width="286" height="237" rx="5" stroke="white" stroke-width="2"/>
<circle cx="276.232" cy="292.774" r="4.23191" stroke="white" stroke-width="2"/>
<circle cx="299.55" cy="292.774" r="4.23191" stroke="white" stroke-width="2"/>
<rect x="41" y="316" width="263" height="48" stroke="white" stroke-width="2"/>
<rect x="16" y="364" width="311" height="15" stroke="white" stroke-width="2"/>
<rect x="103" y="138.904" width="139.314" height="16.4323" stroke="white" stroke-width="2"/>
<rect x="102" y="138" width="72" height="18" fill="white"/>
<path d="M168.604 122.2V123.586H162.976C162.854 125.107 162.71 126.19 162.542 126.834C163.12 125.77 164.096 125.238 165.468 125.238C166.448 125.238 167.213 125.523 167.764 126.092C168.314 126.652 168.59 127.417 168.59 128.388C168.59 129.536 168.212 130.451 167.456 131.132C166.7 131.804 165.696 132.14 164.446 132.14C163.41 132.14 162.518 131.907 161.772 131.44C161.034 130.973 160.554 130.357 160.33 129.592L161.618 128.668C161.795 129.331 162.145 129.853 162.668 130.236C163.19 130.619 163.806 130.81 164.516 130.81C165.262 130.81 165.864 130.595 166.322 130.166C166.788 129.737 167.022 129.163 167.022 128.444C167.022 127.819 166.83 127.319 166.448 126.946C166.065 126.573 165.552 126.386 164.908 126.386C164.301 126.386 163.769 126.535 163.312 126.834C162.864 127.123 162.523 127.501 162.29 127.968L160.988 127.66C161.37 126.073 161.604 124.253 161.688 122.2H168.604ZM174.023 122.06C175.33 122.06 176.352 122.508 177.089 123.404C177.836 124.3 178.209 125.495 178.209 126.988V127.408C178.209 128.845 177.836 129.993 177.089 130.852C176.352 131.711 175.33 132.14 174.023 132.14C172.726 132.14 171.704 131.711 170.957 130.852C170.22 129.993 169.851 128.845 169.851 127.408V126.988C169.851 125.504 170.22 124.314 170.957 123.418C171.704 122.513 172.726 122.06 174.023 122.06ZM174.023 130.81C174.845 130.81 175.484 130.511 175.941 129.914C176.399 129.307 176.627 128.472 176.627 127.408V126.974C176.627 125.854 176.394 124.977 175.927 124.342C175.47 123.707 174.835 123.39 174.023 123.39C173.221 123.39 172.591 123.712 172.133 124.356C171.676 124.991 171.447 125.863 171.447 126.974V127.408C171.447 128.472 171.676 129.307 172.133 129.914C172.591 130.511 173.221 130.81 174.023 130.81ZM180.651 122.83C181.183 122.317 181.902 122.06 182.807 122.06C183.712 122.06 184.431 122.317 184.963 122.83C185.495 123.343 185.761 124.034 185.761 124.902C185.761 125.789 185.495 126.493 184.963 127.016C184.431 127.529 183.712 127.786 182.807 127.786C181.902 127.786 181.183 127.529 180.651 127.016C180.119 126.493 179.853 125.789 179.853 124.902C179.853 124.034 180.119 123.343 180.651 122.83ZM183.983 132H182.709L186.069 127.058L189.135 122.2H190.409L186.895 127.338L183.983 132ZM181.449 126.372C181.776 126.727 182.228 126.904 182.807 126.904C183.386 126.904 183.834 126.727 184.151 126.372C184.478 126.017 184.641 125.527 184.641 124.902C184.641 124.286 184.478 123.805 184.151 123.46C183.834 123.115 183.386 122.942 182.807 122.942C182.228 122.942 181.776 123.115 181.449 123.46C181.132 123.805 180.973 124.286 180.973 124.902C180.973 125.527 181.132 126.017 181.449 126.372ZM188.225 127.184C188.757 126.671 189.476 126.414 190.381 126.414C191.286 126.414 192.005 126.671 192.537 127.184C193.069 127.697 193.335 128.388 193.335 129.256C193.335 130.143 193.069 130.847 192.537 131.37C192.005 131.883 191.286 132.14 190.381 132.14C189.476 132.14 188.757 131.883 188.225 131.37C187.693 130.847 187.427 130.143 187.427 129.256C187.427 128.388 187.693 127.697 188.225 127.184ZM189.023 130.726C189.35 131.081 189.802 131.258 190.381 131.258C190.96 131.258 191.408 131.081 191.725 130.726C192.052 130.371 192.215 129.881 192.215 129.256C192.215 128.649 192.052 128.173 191.725 127.828C191.408 127.483 190.96 127.31 190.381 127.31C189.802 127.31 189.35 127.483 189.023 127.828C188.706 128.173 188.547 128.649 188.547 129.256C188.547 129.881 188.706 130.371 189.023 130.726Z" fill="#C4C4C4"/>
</svg>
