<svg width="312" height="353" viewBox="0 0 312 353" fill="none" xmlns="http://www.w3.org/2000/svg">
<rect x="1" y="1" width="310" height="269" rx="7" stroke="white" stroke-width="2"/>
<rect x="94" y="124" width="139" height="16" stroke="white" stroke-width="2"/>
<rect x="93" y="123" width="106" height="18" fill="white"/>
<path d="M148.266 108.586V107.2H156.358V108.628C154.781 110 153.684 111.293 153.068 112.506C152.452 113.719 152.158 115.217 152.186 117H150.198C150.198 113.565 151.859 110.761 155.182 108.586H148.266ZM164.309 107.2V108.586H158.681C158.56 110.107 158.415 111.19 158.247 111.834C158.826 110.77 159.801 110.238 161.173 110.238C162.153 110.238 162.918 110.523 163.469 111.092C164.02 111.652 164.295 112.417 164.295 113.388C164.295 114.536 163.917 115.451 163.161 116.132C162.405 116.804 161.402 117.14 160.151 117.14C159.115 117.14 158.224 116.907 157.477 116.44C156.74 115.973 156.259 115.357 156.035 114.592L157.323 113.668C157.5 114.331 157.85 114.853 158.373 115.236C158.896 115.619 159.512 115.81 160.221 115.81C160.968 115.81 161.57 115.595 162.027 115.166C162.494 114.737 162.727 114.163 162.727 113.444C162.727 112.819 162.536 112.319 162.153 111.946C161.77 111.573 161.257 111.386 160.613 111.386C160.006 111.386 159.474 111.535 159.017 111.834C158.569 112.123 158.228 112.501 157.995 112.968L156.693 112.66C157.076 111.073 157.309 109.253 157.393 107.2H164.309ZM166.676 107.83C167.208 107.317 167.927 107.06 168.832 107.06C169.738 107.06 170.456 107.317 170.988 107.83C171.52 108.343 171.786 109.034 171.786 109.902C171.786 110.789 171.52 111.493 170.988 112.016C170.456 112.529 169.738 112.786 168.832 112.786C167.927 112.786 167.208 112.529 166.676 112.016C166.144 111.493 165.878 110.789 165.878 109.902C165.878 109.034 166.144 108.343 166.676 107.83ZM170.008 117H168.734L172.094 112.058L175.16 107.2H176.434L172.92 112.338L170.008 117ZM167.474 111.372C167.801 111.727 168.254 111.904 168.832 111.904C169.411 111.904 169.859 111.727 170.176 111.372C170.503 111.017 170.666 110.527 170.666 109.902C170.666 109.286 170.503 108.805 170.176 108.46C169.859 108.115 169.411 107.942 168.832 107.942C168.254 107.942 167.801 108.115 167.474 108.46C167.157 108.805 166.998 109.286 166.998 109.902C166.998 110.527 167.157 111.017 167.474 111.372ZM174.25 112.184C174.782 111.671 175.501 111.414 176.406 111.414C177.312 111.414 178.03 111.671 178.562 112.184C179.094 112.697 179.36 113.388 179.36 114.256C179.36 115.143 179.094 115.847 178.562 116.37C178.03 116.883 177.312 117.14 176.406 117.14C175.501 117.14 174.782 116.883 174.25 116.37C173.718 115.847 173.452 115.143 173.452 114.256C173.452 113.388 173.718 112.697 174.25 112.184ZM175.048 115.726C175.375 116.081 175.828 116.258 176.406 116.258C176.985 116.258 177.433 116.081 177.75 115.726C178.077 115.371 178.24 114.881 178.24 114.256C178.24 113.649 178.077 113.173 177.75 112.828C177.433 112.483 176.985 112.31 176.406 112.31C175.828 112.31 175.375 112.483 175.048 112.828C174.731 113.173 174.572 113.649 174.572 114.256C174.572 114.881 174.731 115.371 175.048 115.726Z" fill="#C4C4C4"/>
<rect x="124" y="270" width="63" height="72" stroke="white" stroke-width="2"/>
<rect x="11" y="13" width="290" height="234" rx="2" stroke="white" stroke-width="2"/>
<rect x="60" y="342" width="176" height="10" stroke="white" stroke-width="2"/>
</svg>
