<svg width="408" height="353" viewBox="0 0 408 353" fill="none" xmlns="http://www.w3.org/2000/svg">
<rect x="1" y="1" width="406" height="269" rx="7" stroke="white" stroke-width="2"/>
<rect x="164" y="270" width="79" height="72" stroke="white" stroke-width="2"/>
<rect x="12" y="12" width="384" height="230" rx="5" stroke="white" stroke-width="2"/>
<rect x="105" y="342" width="198" height="10" stroke="white" stroke-width="2"/>
<circle cx="204" cy="256" r="7" stroke="white" stroke-width="2"/>
<rect x="141" y="123" width="141" height="18" fill="#73F367"/>
<path d="M191 112.044L195.284 107.2H196.642V117H195.046V108.964L192.05 113.29L191 112.044ZM202.775 107.06C204.082 107.06 205.104 107.508 205.841 108.404C206.588 109.3 206.961 110.495 206.961 111.988V112.408C206.961 113.845 206.588 114.993 205.841 115.852C205.104 116.711 204.082 117.14 202.775 117.14C201.478 117.14 200.456 116.711 199.709 115.852C198.972 114.993 198.603 113.845 198.603 112.408V111.988C198.603 110.504 198.972 109.314 199.709 108.418C200.456 107.513 201.478 107.06 202.775 107.06ZM202.775 115.81C203.597 115.81 204.236 115.511 204.693 114.914C205.151 114.307 205.379 113.472 205.379 112.408V111.974C205.379 110.854 205.146 109.977 204.679 109.342C204.222 108.707 203.587 108.39 202.775 108.39C201.973 108.39 201.343 108.712 200.885 109.356C200.428 109.991 200.199 110.863 200.199 111.974V112.408C200.199 113.472 200.428 114.307 200.885 114.914C201.343 115.511 201.973 115.81 202.775 115.81ZM212.455 107.06C213.762 107.06 214.784 107.508 215.521 108.404C216.268 109.3 216.641 110.495 216.641 111.988V112.408C216.641 113.845 216.268 114.993 215.521 115.852C214.784 116.711 213.762 117.14 212.455 117.14C211.158 117.14 210.136 116.711 209.389 115.852C208.652 114.993 208.283 113.845 208.283 112.408V111.988C208.283 110.504 208.652 109.314 209.389 108.418C210.136 107.513 211.158 107.06 212.455 107.06ZM212.455 115.81C213.276 115.81 213.916 115.511 214.373 114.914C214.83 114.307 215.059 113.472 215.059 112.408V111.974C215.059 110.854 214.826 109.977 214.359 109.342C213.902 108.707 213.267 108.39 212.455 108.39C211.652 108.39 211.022 108.712 210.565 109.356C210.108 109.991 209.879 110.863 209.879 111.974V112.408C209.879 113.472 210.108 114.307 210.565 114.914C211.022 115.511 211.652 115.81 212.455 115.81ZM219.083 107.83C219.615 107.317 220.333 107.06 221.239 107.06C222.144 107.06 222.863 107.317 223.395 107.83C223.927 108.343 224.193 109.034 224.193 109.902C224.193 110.789 223.927 111.493 223.395 112.016C222.863 112.529 222.144 112.786 221.239 112.786C220.333 112.786 219.615 112.529 219.083 112.016C218.551 111.493 218.285 110.789 218.285 109.902C218.285 109.034 218.551 108.343 219.083 107.83ZM222.415 117H221.141L224.501 112.058L227.567 107.2H228.841L225.327 112.338L222.415 117ZM219.881 111.372C220.207 111.727 220.66 111.904 221.239 111.904C221.817 111.904 222.265 111.727 222.583 111.372C222.909 111.017 223.073 110.527 223.073 109.902C223.073 109.286 222.909 108.805 222.583 108.46C222.265 108.115 221.817 107.942 221.239 107.942C220.66 107.942 220.207 108.115 219.881 108.46C219.563 108.805 219.405 109.286 219.405 109.902C219.405 110.527 219.563 111.017 219.881 111.372ZM226.657 112.184C227.189 111.671 227.907 111.414 228.813 111.414C229.718 111.414 230.437 111.671 230.969 112.184C231.501 112.697 231.767 113.388 231.767 114.256C231.767 115.143 231.501 115.847 230.969 116.37C230.437 116.883 229.718 117.14 228.813 117.14C227.907 117.14 227.189 116.883 226.657 116.37C226.125 115.847 225.859 115.143 225.859 114.256C225.859 113.388 226.125 112.697 226.657 112.184ZM227.455 115.726C227.781 116.081 228.234 116.258 228.813 116.258C229.391 116.258 229.839 116.081 230.157 115.726C230.483 115.371 230.647 114.881 230.647 114.256C230.647 113.649 230.483 113.173 230.157 112.828C229.839 112.483 229.391 112.31 228.813 112.31C228.234 112.31 227.781 112.483 227.455 112.828C227.137 113.173 226.979 113.649 226.979 114.256C226.979 114.881 227.137 115.371 227.455 115.726Z" fill="#C4C4C4"/>
</svg>
