<svg width="60" height="60" viewBox="0 0 60 60" fill="none" xmlns="http://www.w3.org/2000/svg">
<path d="M42.4942 4.9681C45.7783 4.97791 48.9251 6.28687 51.2473 8.60911C53.5696 10.9313 54.8785 14.0782 54.8883 17.3623V42.148C54.8785 45.4321 53.5696 48.5789 51.2473 50.9011C48.9251 53.2234 45.7783 54.5323 42.4942 54.5421H17.7085C14.4243 54.5323 11.2775 53.2234 8.9553 50.9011C6.63306 48.5789 5.3241 45.4321 5.31429 42.148V17.3623C5.3241 14.0782 6.63306 10.9313 8.9553 8.60911C11.2775 6.28687 14.4243 4.97791 17.7085 4.9681H42.4942ZM42.4942 0.0112305H17.7085C8.16519 0.0112305 0.357422 7.819 0.357422 17.3623V42.148C0.357422 51.6912 8.16519 59.499 17.7085 59.499H42.4942C52.0374 59.499 59.8452 51.6912 59.8452 42.148V17.3623C59.8452 7.819 52.0374 0.0112305 42.4942 0.0112305Z" fill="#FF3A3A"/>
</svg>
