<svg width="57" height="57" viewBox="0 0 57 57" fill="none" xmlns="http://www.w3.org/2000/svg">
<path d="M56.1865 42.5597C55.5355 41.8662 53.237 39.8159 49.0115 37.1033C44.7549 34.367 41.6158 32.6608 40.7153 32.263C40.636 32.2278 40.5485 32.2149 40.4624 32.2256C40.3762 32.2364 40.2947 32.2704 40.2264 32.3241C38.776 33.4553 36.334 35.5331 36.203 35.6453C35.3574 36.3699 35.3574 36.3699 34.6653 36.1442C33.448 35.7451 29.6666 33.7371 26.3715 30.4346C23.0765 27.1321 20.965 23.2571 20.5659 22.0411C20.3377 21.3477 20.3377 21.3477 21.0648 20.5021C21.177 20.3711 23.2561 17.9292 24.3873 16.4799C24.4409 16.4117 24.475 16.3301 24.4857 16.244C24.4965 16.1578 24.4836 16.0704 24.4484 15.9911C24.0505 15.0893 22.3444 11.9514 19.6081 7.69483C16.8917 3.47064 14.8439 1.1721 14.1504 0.521071C14.0868 0.461023 14.0082 0.41925 13.9228 0.400154C13.8374 0.381058 13.7484 0.385347 13.6653 0.412566C11.2414 1.24554 8.90267 2.3084 6.6811 3.58663C4.53649 4.83334 2.5061 6.26692 0.613587 7.87068C0.547524 7.92685 0.497995 7.99993 0.470311 8.08211C0.442628 8.16428 0.437834 8.25244 0.456443 8.33713C0.717103 9.55188 1.96303 14.6229 5.82928 21.647C9.7741 28.8158 12.5079 32.4887 18.3011 38.2619C24.0942 44.0351 27.8831 46.9335 35.0594 50.8783C42.0835 54.7446 47.157 55.9918 48.3692 56.2499C48.4541 56.2684 48.5424 56.2635 48.6247 56.2358C48.7071 56.2082 48.7804 56.1587 48.8369 56.0928C50.4404 54.2003 51.8736 52.1699 53.1197 50.0253C54.3977 47.8036 55.4606 45.4649 56.2938 43.0411C56.3205 42.9585 56.3246 42.8704 56.3057 42.7858C56.2869 42.7011 56.2457 42.6231 56.1865 42.5597Z" fill="#FF3A3A"/>
</svg>
