<svg width="61" height="47" viewBox="0 0 61 47" fill="none" xmlns="http://www.w3.org/2000/svg">
<path d="M52.6297 0.0942383H8.03834C6.06793 0.0963461 4.17882 0.880024 2.78553 2.27332C1.39223 3.66661 0.608553 5.55572 0.606445 7.52613V39.3771C0.608553 41.3475 1.39223 43.2366 2.78553 44.6299C4.17882 46.0232 6.06793 46.8069 8.03834 46.809H52.6297C54.6001 46.8069 56.4893 46.0232 57.8825 44.6299C59.2758 43.2366 60.0595 41.3475 60.0616 39.3771V7.52613C60.0595 5.55572 59.2758 3.66661 57.8825 2.27332C56.4893 0.880024 54.6001 0.0963461 52.6297 0.0942383ZM50.7479 12.3874L31.6373 27.2512C31.2646 27.5409 30.8061 27.6982 30.334 27.6982C29.862 27.6982 29.4035 27.5409 29.0308 27.2512L9.92021 12.3874C9.69567 12.2178 9.50708 12.0053 9.36538 11.7623C9.22368 11.5192 9.13171 11.2504 9.0948 10.9714C9.05789 10.6925 9.07679 10.409 9.15039 10.1374C9.22399 9.86588 9.35082 9.61165 9.52353 9.38952C9.69623 9.1674 9.91136 8.98182 10.1564 8.84355C10.4015 8.70529 10.6715 8.61711 10.951 8.58413C11.2304 8.55115 11.5136 8.57403 11.7841 8.65145C12.0546 8.72886 12.307 8.85926 12.5267 9.03507L30.334 22.8849L48.1414 9.03507C48.5867 8.69881 49.1464 8.55133 49.6996 8.62452C50.2527 8.69772 50.7549 8.98571 51.0974 9.42621C51.4399 9.86671 51.5952 10.4243 51.5298 10.9785C51.4644 11.5326 51.1835 12.0387 50.7479 12.3874Z" fill="#FF3A3A"/>
</svg>
