<svg width="55" height="97" viewBox="0 0 55 97" fill="none" xmlns="http://www.w3.org/2000/svg">
<path d="M28.9011 0.111572C34.3127 0.111572 38.9576 1.10168 42.836 3.0819C46.8045 4.97211 49.7808 7.53739 51.7651 10.7777C53.7493 14.0181 54.7415 17.4835 54.7415 21.1739C54.7415 24.6843 54.1101 27.6996 52.8474 30.2199C51.6749 32.6502 50.2318 34.6304 48.5181 36.1606C46.8045 37.6907 44.5045 39.4909 41.6183 41.5611C37.8302 44.1714 34.9891 46.6017 33.0951 48.852C31.201 51.0122 30.254 53.9375 30.254 57.6279V63.7036H17.9426V56.9529C17.9426 53.0824 18.5739 49.7971 19.8366 47.0968C21.1895 44.3965 22.7679 42.2362 24.5718 40.616C26.3757 38.9959 28.7658 37.1507 31.7422 35.0804C35.1695 32.8302 37.6949 30.805 39.3184 29.0048C40.9419 27.2046 41.7536 24.8643 41.7536 21.984C41.7536 18.2936 40.536 15.4583 38.1008 13.478C35.6656 11.4078 32.3284 10.3727 28.0893 10.3727C20.8739 10.3727 14.6054 13.6131 9.28402 20.0938L0.760742 13.478C8.33699 4.56706 17.7171 0.111572 28.9011 0.111572ZM24.4365 77.6101C27.1423 77.6101 29.3971 78.5102 31.201 80.3104C33.0049 82.1106 33.9068 84.3159 33.9068 86.9262C33.9068 89.5364 33.0049 91.7867 31.201 93.6769C29.3971 95.4771 27.1423 96.3772 24.4365 96.3772C21.8209 96.3772 19.6112 95.4771 17.8073 93.6769C16.0034 91.7867 15.1015 89.5364 15.1015 86.9262C15.1015 84.3159 16.0034 82.1106 17.8073 80.3104C19.6112 78.5102 21.8209 77.6101 24.4365 77.6101Z" fill="#FF3A3A"/>
</svg>
